<svg xmlns="http://www.w3.org/2000/svg" height="512" width="512" id="flag-icon-css-om">
  <defs>
    <clipPath id="a">
      <path fill-opacity=".67" d="M0 0h512v512H0z"/>
    </clipPath>
  </defs>
  <g clip-path="url(#a)">
    <path fill-rule="evenodd" fill="#ef2d29" d="M-23.298-21.609h554.71v553.02h-554.71z"/>
    <path fill-rule="evenodd" fill="#009025" d="M164.57 341.33h376.55v207.56H164.57z"/>
    <path fill-rule="evenodd" fill="#fff" d="M164.57-19.415h376.55v190.08H164.57z"/>
    <g stroke="#ef2d28">
      <g fill-rule="evenodd" fill="#fff" transform="matrix(.19516 0 0 .17447 109.217 -5.34)">
        <rect rx="11.491" ry="12.053" height="85.039" width="138.19" y="467.72" x="17.717" stroke-width="1.43"/>
        <rect rx="10.901" ry="11.049" height="77.953" width="131.1" y="471.26" x="21.26" stroke-width="1pt"/>
        <path d="M64.966 396.07l9.723.443.442 5.745 7.955 5.303 6.187-6.629 7.513 5.303-7.07 5.746 1.767 7.955 8.838-.442v10.607l-7.07-.442-3.536 6.629 7.955 7.513-6.187 6.187-6.63-6.629-9.722 2.652.442 9.723-10.607.884-1.326-9.281-8.839-4.862-4.861 6.629-7.514-4.861 4.42-7.513-5.304-4.862H34.03l-.442-13.7 7.513.884 5.304-7.955-6.187-6.187 7.955-7.071 5.745 5.745 9.723-1.768 1.326-5.746z" transform="matrix(.68108 0 0 .5852 37.972 260.74)" stroke-width="1pt"/>
        <ellipse transform="matrix(.65819 0 0 .70224 38.845 209.62)" cx="68.944" rx="11.049" cy="426.78" ry="9.944" stroke-width="1pt"/>
        <path d="M38.976 474.8l-10.63 10.63m17.717-10.63l-10.63 10.63m17.716-10.63l-10.63 10.63m17.717-10.63l-10.63 10.63m17.716-10.63l-10.63 10.63m17.717-10.63l-10.63 10.63m17.717-10.63l-10.63 10.63m17.716-10.63l-10.63 10.63m17.717-10.63l-10.63 10.63m17.716-10.63l-10.63 10.63m17.717-10.63l-10.63 10.63m17.717-10.63l-10.63 10.63M88.582 474.8l-10.63 10.63m46.063-10.63l-10.63 10.63m17.717-10.63l-10.63 10.63m17.717-10.63l-10.63 10.63m17.717-10.63l-10.63 10.63m-.002-10.63l10.63 10.63m-17.71-10.63l10.63 10.63m-17.72-10.63l10.63 10.63m-17.72-10.63l10.63 10.63m-17.71-10.63l10.63 10.63m-17.72-10.63l10.63 10.63m-17.72-10.63l10.63 10.63m-17.71-10.63l10.63 10.63m-17.72-10.63l10.63 10.63m-17.72-10.63l10.63 10.63m-17.71-10.63l10.63 10.63M56.693 474.8l10.63 10.63m17.721-10.63l10.63 10.63M49.607 474.8l10.63 10.63M42.52 474.8l10.63 10.63M35.434 474.8l10.63 10.63M28.347 474.8l10.63 10.63M38.976 535.036l-10.63 10.63m17.717-10.63l-10.63 10.63m17.716-10.63l-10.63 10.63m17.717-10.63l-10.63 10.63m17.716-10.63l-10.63 10.63m17.717-10.63l-10.63 10.63m17.717-10.63l-10.63 10.63m17.716-10.63l-10.63 10.63m17.717-10.63l-10.63 10.63m17.716-10.63l-10.63 10.63m17.717-10.63l-10.63 10.63m17.717-10.63l-10.63 10.63m-17.717-10.63l-10.63 10.63m46.063-10.63l-10.63 10.63m17.717-10.63l-10.63 10.63m17.717-10.63l-10.63 10.63m17.717-10.63l-10.63 10.63m-.002-10.63l10.63 10.63m-17.71-10.63l10.63 10.63m-17.72-10.63l10.63 10.63m-17.72-10.63l10.63 10.63m-17.71-10.63l10.63 10.63m-17.72-10.63l10.63 10.63m-17.72-10.63l10.63 10.63m-17.71-10.63l10.63 10.63m-17.72-10.63l10.63 10.63m-17.72-10.63l10.63 10.63m-17.71-10.63l10.63 10.63m-17.721-10.63l10.63 10.63m17.721-10.63l10.63 10.63m-46.067-10.63l10.63 10.63m-17.717-10.63l10.63 10.63m-17.716-10.63l10.63 10.63m-17.717-10.63l10.63 10.63" stroke-width="1pt"/>
      </g>
      <g fill-rule="evenodd" fill="#fff" transform="matrix(.19516 0 0 .17447 18.63 -5.958)">
        <rect rx="11.491" ry="12.053" height="85.039" width="138.19" y="467.72" x="17.717" stroke-width="1.43"/>
        <rect rx="10.901" ry="11.049" height="77.953" width="131.1" y="471.26" x="21.26" stroke-width="1pt"/>
        <path d="M64.966 396.07l9.723.443.442 5.745 7.955 5.303 6.187-6.629 7.513 5.303-7.07 5.746 1.767 7.955 8.838-.442v10.607l-7.07-.442-3.536 6.629 7.955 7.513-6.187 6.187-6.63-6.629-9.722 2.652.442 9.723-10.607.884-1.326-9.281-8.839-4.862-4.861 6.629-7.514-4.861 4.42-7.513-5.304-4.862H34.03l-.442-13.7 7.513.884 5.304-7.955-6.187-6.187 7.955-7.071 5.745 5.745 9.723-1.768 1.326-5.746z" transform="matrix(.68108 0 0 .5852 37.972 260.74)" stroke-width="1pt"/>
        <ellipse transform="matrix(.65819 0 0 .70224 38.845 209.62)" cx="68.944" rx="11.049" cy="426.78" ry="9.944" stroke-width="1pt"/>
        <path d="M38.976 474.8l-10.63 10.63m17.717-10.63l-10.63 10.63m17.716-10.63l-10.63 10.63m17.717-10.63l-10.63 10.63m17.716-10.63l-10.63 10.63m17.717-10.63l-10.63 10.63m17.717-10.63l-10.63 10.63m17.716-10.63l-10.63 10.63m17.717-10.63l-10.63 10.63m17.716-10.63l-10.63 10.63m17.717-10.63l-10.63 10.63m17.717-10.63l-10.63 10.63M88.582 474.8l-10.63 10.63m46.063-10.63l-10.63 10.63m17.717-10.63l-10.63 10.63m17.717-10.63l-10.63 10.63m17.717-10.63l-10.63 10.63m-.002-10.63l10.63 10.63m-17.71-10.63l10.63 10.63m-17.72-10.63l10.63 10.63m-17.72-10.63l10.63 10.63m-17.71-10.63l10.63 10.63m-17.72-10.63l10.63 10.63m-17.72-10.63l10.63 10.63m-17.71-10.63l10.63 10.63m-17.72-10.63l10.63 10.63m-17.72-10.63l10.63 10.63m-17.71-10.63l10.63 10.63M56.693 474.8l10.63 10.63m17.721-10.63l10.63 10.63M49.607 474.8l10.63 10.63M42.52 474.8l10.63 10.63M35.434 474.8l10.63 10.63M28.347 474.8l10.63 10.63M38.976 535.036l-10.63 10.63m17.717-10.63l-10.63 10.63m17.716-10.63l-10.63 10.63m17.717-10.63l-10.63 10.63m17.716-10.63l-10.63 10.63m17.717-10.63l-10.63 10.63m17.717-10.63l-10.63 10.63m17.716-10.63l-10.63 10.63m17.717-10.63l-10.63 10.63m17.716-10.63l-10.63 10.63m17.717-10.63l-10.63 10.63m17.717-10.63l-10.63 10.63m-17.717-10.63l-10.63 10.63m46.063-10.63l-10.63 10.63m17.717-10.63l-10.63 10.63m17.717-10.63l-10.63 10.63m17.717-10.63l-10.63 10.63m-.002-10.63l10.63 10.63m-17.71-10.63l10.63 10.63m-17.72-10.63l10.63 10.63m-17.72-10.63l10.63 10.63m-17.71-10.63l10.63 10.63m-17.72-10.63l10.63 10.63m-17.72-10.63l10.63 10.63m-17.71-10.63l10.63 10.63m-17.72-10.63l10.63 10.63m-17.72-10.63l10.63 10.63m-17.71-10.63l10.63 10.63m-17.721-10.63l10.63 10.63m17.721-10.63l10.63 10.63m-46.067-10.63l10.63 10.63m-17.717-10.63l10.63 10.63m-17.716-10.63l10.63 10.63m-17.717-10.63l10.63 10.63" stroke-width="1pt"/>
      </g>
      <path d="M538.58 531.5c1.717 166.56 24.803 201.97 3.543 201.97s-31.89-92.07-31.89-205.51 14.173-205.51 35.433-205.51-8.913 31.909-7.086 209.06z" fill-rule="evenodd" transform="matrix(-.31598 -.12472 -.1982 .19883 339.924 68.244)" stroke-width="1pt" fill="#fff"/>
      <path d="M545.67 779.53l-60.236 17.716c56.693 60.236 120.47 85.039 138.19 74.409 17.717-10.629-31.89-35.433-77.953-92.125z" fill-rule="evenodd" stroke-width="1.25" fill="#fff" transform="matrix(-.19516 0 0 .17447 142.637 -5.34)"/>
      <path d="M547.27 786.9l-50.926 14.74c56.693 60.236 112.77 77.385 127.28 70.015 14.591-7.37-30.287-28.063-76.35-84.755z" fill-rule="evenodd" transform="matrix(-.1901 0 0 .16776 140.18 -.11)" stroke-width="1.292" fill="#fff"/>
      <path d="M353.13 634.23c.187 1.273.748 7.068 1.25 9.375 0 3.186.288 5.632.625 8.125.796 2.177.661 4.198 3.125 5.001 1.694 2.631 2.76 3.313 5 4.375 1.527 1.323 3.84 2.642 6.25 3.75 2.499 1.071 4.771 1.218 7.5.625 2.19-1.526 3.804-3.1 5.625-4.375.429-1.973.822-4.903 1.25-6.875-.674 2.024-1.147 5.265-1.25 8.125.24 3.12 1.265 4.481 2.5 6.875" transform="matrix(-.13744 0 0 .12206 120.788 27.901)" stroke-width="1.781" fill="none"/>
      <path d="M389.38 681.73l.625-.625c-1.484 1.484-.878.776 2.5-1.25 2.426-1.246 5.015-1.908 8.125-2.5h8.75c3.405 0 5.696.511 8.125 1.25 1.762 1.762 4.393 2.763 6.25 4.375 1.905 1.295 2.722 2.829 3.75 5 1.701 1.701 2.803 4.326 4.375 5.625.704 2.871 2.141 2.773 3.125 5-2.948.227-5.311.631-6.875 2.5-2.597 1.344 2.179-1.317 3.125-2.5 2.046-.618 2.576-1.25 5.625-1.25 2.85-.904 4.579.737 7.5 1.25 1.705.987 2.178 1.25 4.376 1.25" transform="matrix(-.13744 0 0 .12206 122.594 27.214)" stroke-width="1.781" fill="none"/>
      <path d="M438.13 724.86c1.273.075 7.083 1.146 9.376 0 2.552-.696 4.068-2.04 5.625-4.375.767-1.689 0 2.998 0 5 .283 3.68 1.366 3.714 3.125 6.25 1.814 1.163 3.725 2.8 5.625 3.75 1.576 1.366 3.513 2.28 5.625 3.125 1.896.898 4.111 1.813 5.625 3.125 2.09 1.493 1.888 3.278 3.125 5.625-.235 3.057-.733 4.79-2.5 6.25-.738 2.113-2.395 4.205-3.75 5.625-1.545 2.87-3.256 4.224.625 5 2.132.914 3.327.197 5.625 0" transform="matrix(-.13744 0 0 .12206 124.655 25.766)" stroke-width="1.781" fill="none"/>
      <path d="M480.63 771.73c1.536-.391 6.983-2.213 9.375-3.125h8.75c3.391.261 4.037 1.256 6.876 2.5 1.832 1.871 3.089 3.162 5.625 4.376 1.341 1.733 3.953 4.677 5 6.875.745 2.133 1.25 5.018 1.25 8.125-.044 3.648-1.002 4.271-1.25 7.5-.701 2.684-1.839 5.143-3.75 7.5-.265.793-.457.986-1.25 1.25" transform="matrix(-.13744 0 0 .12206 125.084 25.383)" stroke-width="1.781" fill="none"/>
      <path d="M538.13 817.98c.374 0 1.201 2.018 2.5 3.75 2.828 2.906 3.192 3.125 7.5 3.125 3.884-.143 3.522-1.532 6.25-2.5 1.289-2.008 2.896-3.6 4.375-6.25 1.006-1.634 1.89-4.129 3.125-5.625 1.141-1.854 2.563-3.254 3.75-5 1.172-.502 1.618-.984 3.126-1.25-3.6.578-3.915 1.867-6.251 3.75-1.094 1.779-2.181 3.633-3.125 5.625-.361 2.673-1.21 4.779-1.25 8.125 0 3.457.017 5.872 1.25 8.75 1.473 1.545 2.563 3.143 4.375 4.376 1.439 1.405 3.244 3.336 4.376 5 1.96 1.206 3.385 2.189 5.625 3.75 1.884 1.102 3.915 2.234 6.875 2.5 3.67-.262 4.755-1.297 7.5-2.5 2.329-1.713 4.163-2.838 6.25-4.375 1.629-1.141 3.288-3.403 4.375-5 3.382-.846 5.529-.508 7.5 1.25a16.536 16.536 0 0 1 4.375 4.375c1.02.51 2.73 1.99 3.75 2.5" transform="matrix(-.09758 0 0 .09635 107.445 46.037)" stroke-width="2.379" fill="none"/>
      <path d="M503.76 836.11c-.802.334-3.717 2.367-5 3.125-.8 2.631-2.077 4.069-2.5 6.875-.677 2.709-.625 5.692-.625 8.75.685 3.194 2.015 5.557 3.125 8.125 1.974 1.342 2.967 2.33 5.625 3.75 2.494.337 4.94.625 8.126.625 1.904.635 5.615.942 7.5 0 2.783-.376 4.854-1.507 6.875-2.5 2.306-1.307 3.728-2.542 6.25-3.75 1.225-1.801 3.13-3.46 5-5.625 1.556-2.105 2.7-3.286 3.75-5.625-.924 2.669-2.327 4.999-3.125 7.5-1.422 2.661-2.248 3.604-2.5 6.875-.871 2.613-.625 5.76-.625 8.75.274 2.031.418 5.837 1.25 7.5v1.875" transform="matrix(-.12132 0 0 .12024 109.33 26.805)" stroke-width="1.91" fill="none"/>
      <path d="M541.26 799.23v.625c0-1.687.041-.83-.625 2.5-1.179 1.462-3.944 1.868-6.25 1.25-2.022-1.67-1.96-2.935-5.625-3.75-3.542.253-4.892 1.279-6.875 2.5-2.354 1.177-3.438 1.771-5 4.375-.776 2.12-1.209 3.555 1.25 4.375 1.954 1.386 4.277 2.149 6.875 2.5 2.887 0 4.968-.339 6.25 1.25 1.983 2.055 1.875 3.277 1.875 6.875.667 1.112.799 4.394 1.25 5.625 1.736.823 2.755 1.25 5.625 1.25.674-1.931 1.423-5.419 1.875-7.5.489-2.248.64-5.379 1.875-6.875a16.58 16.58 0 0 1 4.375-4.375c.766-1.073 2.223-1.965 3.75-2.5-2.452 1.251-2.801 2.603-3.125 5.625 2.155 1.078 2.731 1.833 6.25 1.875 3.459-.291 4.295-1.169 5.625-3.125.242 3.136 1.243 4.186 1.875 6.875 1.286 1.891 1.832 3.828 3.125 6.25-.551 3.012-1.737 3.163-1.875 6.875-.811 2.435-.723 4.783-2.5 6.251-.792.968-1.384 1.158-3.125 1.25 3.618 0 5.727-.391 8.125-1.875 1.854-1.141 3.255-2.563 5.001-3.75 2.212-1.603 4.947-3.085 7.5-3.751 2.887 0 4.968-.339 6.25 1.25 1.77 1.265 2.959 3.447 3.75 6.251.579 3.244.8 5.404-.625 7.5-1.057 2.408-1.297 3.346 0 6.25 1.452 2.033 3.617 2.272 6.875 3.125 2.379-.128 4.668-.671 6.25-1.25" stroke-width="1.25" fill="none" transform="matrix(-.19516 0 0 .17447 142.637 -5.34)"/>
      <g fill-rule="evenodd" stroke-width="1pt" transform="matrix(-.19516 0 0 .17447 142.637 -5.34)">
        <path d="M531.5 359.64c0-165.27 7.937-299.41 17.717-299.41 9.779 0 17.716 134.13 17.716 299.41H531.5z" transform="matrix(1.4216 -.73423 .46161 .89375 -716.84 541.07)" fill="#fff"/>
        <path d="M531.5 359.64c0-165.27 7.937-299.41 17.717-299.41 9.779 0 17.716 134.13 17.716 299.41" transform="matrix(1.1373 -.58739 .44532 .86221 -554.83 471.77)" fill="#fff"/>
        <path d="M563.39 301.18c.189 18.908 0 40.188 0 60.236h-28.347c0-20.048-.189-41.328 0-60.236h28.347z" transform="matrix(1.4216 -.73423 .45889 .88849 -716.67 541.39)" fill="#fff"/>
        <path d="M559.84 304.72c.189 18.908 0 33.102 0 53.15h-21.26c0-20.048-.189-34.242 0-53.15h21.26z" transform="matrix(1.4216 -.73423 .45889 .88849 -716.67 541.39)" fill="#fff"/>
        <path transform="matrix(1.4216 -.73423 .45889 .88849 -716.67 541.39)" fill="#fff" d="M542.13 311.81h14.173v38.976H542.13zm0 0l14.173 38.976m-14.173.004l14.173-38.976M542.13 113.39h14.173"/>
        <ellipse fill="#ef0000" transform="matrix(1.6046 .45375 -.36215 1.5787 -734.9 -170.85)" cx="545.67" rx="3.543" cy="92.126" ry="3.543"/>
      </g>
      <path d="M538.58 531.5c1.717 166.56 24.803 201.97 3.543 201.97s-31.89-92.07-31.89-205.51 14.173-205.51 35.433-205.51-8.913 31.909-7.086 209.06z" fill-rule="evenodd" transform="matrix(.31598 -.12472 .1982 .19883 -178.657 67.627)" stroke-width="1pt" fill="#fff"/>
      <path d="M545.67 779.53l-60.236 17.716c56.693 60.236 120.47 85.039 138.19 74.409 17.717-10.629-31.89-35.433-77.953-92.125z" fill-rule="evenodd" stroke-width="1.25" fill="#fff" transform="matrix(.19516 0 0 .17447 18.63 -5.958)"/>
      <path d="M547.27 786.9l-50.926 14.74c56.693 60.236 112.77 77.385 127.28 70.015 14.591-7.37-30.287-28.063-76.35-84.755z" fill-rule="evenodd" transform="matrix(.1901 0 0 .16776 21.086 -.727)" stroke-width="1.292" fill="#fff"/>
      <path d="M353.13 634.23c.187 1.273.748 7.068 1.25 9.375 0 3.186.288 5.632.625 8.125.796 2.177.661 4.198 3.125 5.001 1.694 2.631 2.76 3.313 5 4.375 1.527 1.323 3.84 2.642 6.25 3.75 2.499 1.071 4.771 1.218 7.5.625 2.19-1.526 3.804-3.1 5.625-4.375.429-1.973.822-4.903 1.25-6.875-.674 2.024-1.147 5.265-1.25 8.125.24 3.12 1.265 4.481 2.5 6.875" transform="matrix(.13744 0 0 .12206 40.478 27.284)" stroke-width="1.781" fill="none"/>
      <path d="M389.38 681.73l.625-.625c-1.484 1.484-.878.776 2.5-1.25 2.426-1.246 5.015-1.908 8.125-2.5h8.75c3.405 0 5.696.511 8.125 1.25 1.762 1.762 4.393 2.763 6.25 4.375 1.905 1.295 2.722 2.829 3.75 5 1.701 1.701 2.803 4.326 4.375 5.625.704 2.871 2.141 2.773 3.125 5-2.948.227-5.311.631-6.875 2.5-2.597 1.344 2.179-1.317 3.125-2.5 2.046-.618 2.576-1.25 5.625-1.25 2.85-.904 4.579.737 7.5 1.25 1.705.987 2.178 1.25 4.376 1.25" transform="matrix(.13744 0 0 .12206 38.673 26.597)" stroke-width="1.781" fill="none"/>
      <path d="M438.13 724.86c1.273.075 7.083 1.146 9.376 0 2.552-.696 4.068-2.04 5.625-4.375.767-1.689 0 2.998 0 5 .283 3.68 1.366 3.714 3.125 6.25 1.814 1.163 3.725 2.8 5.625 3.75 1.576 1.366 3.513 2.28 5.625 3.125 1.896.898 4.111 1.813 5.625 3.125 2.09 1.493 1.888 3.278 3.125 5.625-.235 3.057-.733 4.79-2.5 6.25-.738 2.113-2.395 4.205-3.75 5.625-1.545 2.87-3.256 4.224.625 5 2.132.914 3.327.197 5.625 0" transform="matrix(.13744 0 0 .12206 36.612 25.149)" stroke-width="1.781" fill="none"/>
      <path d="M480.63 771.73c1.536-.391 6.983-2.213 9.375-3.125h8.75c3.391.261 4.037 1.256 6.876 2.5 1.832 1.871 3.089 3.162 5.625 4.376 1.341 1.733 3.953 4.677 5 6.875.745 2.133 1.25 5.018 1.25 8.125-.044 3.648-1.002 4.271-1.25 7.5-.701 2.684-1.839 5.143-3.75 7.5-.265.793-.457.986-1.25 1.25" transform="matrix(.13744 0 0 .12206 36.183 24.767)" stroke-width="1.781" fill="none"/>
      <path d="M538.13 817.98c.374 0 1.201 2.018 2.5 3.75 2.828 2.906 3.192 3.125 7.5 3.125 3.884-.143 3.522-1.532 6.25-2.5 1.289-2.008 2.896-3.6 4.375-6.25 1.006-1.634 1.89-4.129 3.125-5.625 1.141-1.854 2.563-3.254 3.75-5 1.172-.502 1.618-.984 3.126-1.25-3.6.578-3.915 1.867-6.251 3.75-1.094 1.779-2.181 3.633-3.125 5.625-.361 2.673-1.21 4.779-1.25 8.125 0 3.457.017 5.872 1.25 8.75 1.473 1.545 2.563 3.143 4.375 4.376 1.439 1.405 3.244 3.336 4.376 5 1.96 1.206 3.385 2.189 5.625 3.75 1.884 1.102 3.915 2.234 6.875 2.5 3.67-.262 4.755-1.297 7.5-2.5 2.329-1.713 4.163-2.838 6.25-4.375 1.629-1.141 3.288-3.403 4.375-5 3.382-.846 5.529-.508 7.5 1.25a16.536 16.536 0 0 1 4.375 4.375c1.02.51 2.73 1.99 3.75 2.5" transform="matrix(.09758 0 0 .09635 53.821 45.42)" stroke-width="2.379" fill="none"/>
      <path d="M503.76 836.11c-.802.334-3.717 2.367-5 3.125-.8 2.631-2.077 4.069-2.5 6.875-.677 2.709-.625 5.692-.625 8.75.685 3.194 2.015 5.557 3.125 8.125 1.974 1.342 2.967 2.33 5.625 3.75 2.494.337 4.94.625 8.126.625 1.904.635 5.615.942 7.5 0 2.783-.376 4.854-1.507 6.875-2.5 2.306-1.307 3.728-2.542 6.25-3.75 1.225-1.801 3.13-3.46 5-5.62<svg xmlns="http://www.w3.org/2000/svg" xmlns:xlink="http://www.w3.org/1999/xlink" height="512" width="512" id="flag-icon-css-gs">
  <defs>
    <linearGradient id="b">
      <stop stop-color="#d5dfff" offset="0"/>
      <stop stop-color="#fff" offset="1"/>
    </linearGradient>
    <linearGradient id="a">
      <stop stop-color="#474747" offset="0"/>
      <stop stop-color="#f50" offset="1"/>
    </linearGradient>
    <linearGradient id="d" y2="173.45" xlink:href="#a" gradientUnits="userSpaceOnUse" y1="218.47" gradientTransform="matrix(1.51 0 0 .652 40.513 .006)" x2="110.94" x1="109.34"/>
    <linearGradient id="e" y2="337.23" gradientUnits="userSpaceOnUse" y1="316.38" gradientTransform="matrix(1.232 0 0 .8 40.513 .006)" x2="126.02" x1="125.91">
      <stop stop-color="#b50000" offset="0"/>
      <stop stop-color="#ffc500" offset="1"/>
    </linearGradient>
    <linearGradient id="f" y2="147.35" xlink:href="#b" gradientUnits="userSpaceOnUse" y1="149.38" gradientTransform="matrix(.56 0 0 1.76 40.513 .006)" x2="456.4" x1="407.87"/>
    <linearGradient id="g" y2="102.99" xlink:href="#a" gradientUnits="userSpaceOnUse" y1="102.99" gradientTransform="matrix(.74 0 0 1.33 40.513 .006)" x2="228.97" x1="215.83"/>
    <linearGradient id="h" y2="1003.7" xlink:href="#b" gradientUnits="userSpaceOnUse" y1="1040.4" gradientTransform="matrix(2.563 0 0 .384 40.513 .006)" x2="78.221" x1="117.6"/>
    <linearGradient id="i" y2="226.38" xlink:href="#b" gradientUnits="userSpaceOnUse" y1="245.98" gradientTransform="matrix(.886 0 0 1.11 40.513 .006)" x2="255.03" x1="264.72"/>
    <clipPath id="c">
      <path fill-opacity=".67" d="M0 0h512v512H0z"/>
    </clipPath>
  </defs>
  <g clip-path="url(#c)">
    <g stroke-width="1pt">
      <path fill="#006" d="M0 0h1023.977v511.984H0z"/>
      <path fill="#fff" d="M0 0v28.62l454.746 227.374h57.24v-28.62L57.24 0H0zm511.986 0v28.62L57.24 255.993H0v-28.62L454.746 0h57.24z"/>
      <path fill="#fff" d="M213.327 0v255.993h85.33V0h-85.33zM0 85.33v85.332h511.986v-85.33H0z"/>
      <path fill="#c00" d="M0 102.397v51.2h511.986v-51.2H0zM230.394 0v255.993h51.198V0h-51.198zM0 255.993l170.662-85.33h38.16L38.16 255.992H0zM0 0l170.662 85.33h-38.16L0 19.08V0zm303.164 85.33L473.826 0h38.16L341.324 85.33h-38.16zm208.822 170.663l-170.662-85.33h38.16l132.502 66.25v19.08z"/>
    </g>
    <path d="M333.75 379.947s-2.878 7.61-4.523 7.61c-1.646 0-7.61-3.29-7.61-3.29s-4.32 6.99-6.58 7.403c-2.263.41-8.227-1.03-8.227-1.03s-5.758 0-5.964-.82c-.206-.824.206-2.47.206-2.47s-8.227 6.582-10.078 6.17c-1.85-.41-8.02-8.226-8.02-8.226l-1.03 4.123-11.723-.413-10.283-6.584s-5.758 9.46-5.964 9.255c-.205-.206-10.077 2.262-10.077 2.262l-.617-1.85-6.582-3.908s5.14-7.2 5.14-7.405c0-.205-2.467-1.028-2.467-1.028l-3.7 3.085-7.61 4.935-7.61-3.496 3.292-6.168.41-4.525 5.965-9.05 73.008-70.95 35.99 66.427-5.347 19.948z" fill-rule="evenodd" stroke="#000" stroke-width="1.147" fill="#6a4c2d"/>
    <path d="M385.62 384.25l19.003-.682-8.09-3.996 72.41-2.73-10.232-3.897-9.063-12.28-37.52-2.826s-2.827-2.145-7.407-1.073c-.195-2.923-3.704-6.724-3.704-6.724l-23.097-1.754-14.425 9.842 9.746 24.948 12.378 1.17z" fill-rule="evenodd" stroke="#000" stroke-width="1.147" fill="#fff"/>
    <path d="M121.32 150.76l2.224-7.561s3.892-6.562 3.892-9.453c0-2.892 2.89-6.34 2.89-6.34s8.897-2.557 10.787 2.892c9.563-14.457 20.794-.668 20.794-.668l3.114-3.67 6.34-7.783s9.006 8.45 9.117 9.895 1.557.445 1.557.445l9.786-.778s4.644 3.635 3.67 10.564c3.448 2.034 6.56 14.01 6.56 14.01l-80.73-1.556z" fill-rule="evenodd" stroke="#000" stroke-width="1pt" fill="url(#d)" transform="matrix(.86 0 0 .86 207.27 41.7)"/>
    <path d="M385.505 248.72c1.45-.893 6.023-2.343 5.465-9.035-.557-6.692-6.357-7.473-9.592-7.25-3.235.223-6.135 3.01-6.135 3.01l-10.707-6.802s5.353-33.797 11.042-35.916c5.402-3.893 6.358-5.577 6.358-6.47s-2.008-3.122-2.008-3.122l-34.912-4.127L312 182.912s-2.564 3.904-2.23 5.465.446 3.235 6.358 7.808c6.54 5.03 11.042 33.908 11.042 33.908s-9.258 4.573-9.815 4.015c-.558-.557-3.346-1.115-4.796-.892-1.45.223-6.247 2.677-6.247 9.034 0 6.358 4.796 10.04 4.796 10.04s31.564-3.68 36.25 5.018c4.572-10.484 34.576-6.803 38.145-8.588z" fill-rule="evenodd" stroke="#000" stroke-width=".86pt" fill="#656263"/>
    <path stroke-linejoin="round" d="M419.51 213.588s.35-3.67 2.97-5.415c2.62-1.747 20.088-2.62 24.28 0s5.765 15.547 5.765 15.547 2.62 4.542 2.795 7.86.524 5.59.524 5.59 13.975 18.168 14.15 34.588c1.572 11.18 1.222 41.05-3.145 52.405-.176 14.148-6.115 23.407-6.115 23.407s1.398 2.445 1.223 5.066c-.175 2.62-1.573 5.066-1.573 5.066l20.438 10.132-7.51-2.795s7.686 6.46 7.51 6.287c-.174-.175-8.56-4.018-8.56-4.018l5.067 5.065c-.175-.175-12.402-5.59-12.402-5.59s5.763 5.416 5.414 5.24c-.35-.174-9.258-4.367-9.258-4.367s5.59 5.94 5.416 5.59-8.036-3.493-8.036-3.493l.35 2.97s-6.29-.35-6.29-5.067c-3.143-1.747-5.24-4.192-5.24-4.192l-14.498-2.445-16.42-49.086 3.843-82.974 1.047-4.193-1.748-11.18z" stroke-opacity=".979" fill-rule="evenodd" stroke="#000" stroke-width="1.075"/>
    <path d="M408.536 478.752s-8.41-17.698-12.604-17.946c-3.784-7.212 13.15-66.187 45.907-69.55 18.01 1.485 1.48 20.763-10.36 14.83 1.478 5.19 7.4 12.605 7.4 12.605s-23.438 10.135-30.344 60.062z" fill-rule="evenodd" stroke="#000" stroke-width="1.139" fill="#fb0"/>
    <path d="M295.773 481.332s6.96-20.138 11.187-20.386c4.226-.25-11.187-67.126-44.75-67.623-18.148 1.492-1.49 20.883 10.442 14.917-1.49 5.22-7.458 12.68-7.458 12.68s23.618 10.192 30.58 60.412z" fill-rule="evenodd" stroke="#000" stroke-width=".86pt" fill="#fb0"/>
    <path d="M326.56 355.54c-.08-.162-8.33 2.588-2.99 11.565.403-3.478 4.123-5.58 4.123-5.58s-5.66 6.712.324 12.373c.727-5.337 4.124-7.035 4.124-7.035s-4.204 12.373.082 14.88c.485-4.934 3.64-7.117 3.64-7.117s-3.802 11.08-.405 13.587c.404-4.205 3.235-6.066 3.235-6.066s-1.7 11.485 2.75 12.293c.08-4.043 3.315-8.006 3.315-8.006s-1.456 9.38 5.5 9.786c.08-3.56 1.375-7.603 1.375-7.603s3.154 9.948 7.763 8.33c-.08-2.91.08-8.41 0-8.41s2.912 9.462 8.41 7.683c-.807-2.67.325-5.824.325-5.824s2.912 5.904 8.17 3.963c.888-1.78-.245-5.257-.245-5.257s7.684 7.926 10.03 3.154c2.345-4.772-6.148-6.39-6.148-6.39h5.743s-1.86-4.85-9.625-5.903c2.67-1.213 5.42-.324 5.42-.324s-1.618-6.065-9.544-6.712c3.074-1.052 6.47-.324 6.47-.324s-1.05-5.74-9.785-7.36c1.376-1.536 5.095-1.05 5.095-1.05s-3.477-5.42-7.44-5.096-39.79-3.64-39.71-3.558z" fill-rule="evenodd" stroke="#000" stroke-width=".86pt" fill="#00713d"/>
    <path d="M361.898 384.737s3.154 1.537 3.073 2.912m-1.207-5.415s4.044 2.83 3.963 4.933m-.411-6.395s3.235 2.022 3.397 5.177m2.021-3.879s1.618 3.48 1.05 4.125m2.192-2.267c.243 2.75-.243 2.992-.243 2.992m-39.635-20.38s3.8 2.425 3.478 5.822m-3.719-2.907s1.78 1.697 1.375 2.83m3.321-5.66s2.507 3.478 1.698 5.904m2.585-3.642s1.132 2.184.08 3.397m1.941-2.348s1.375 2.184.16 2.91m-1.691 4.288s3.558.81 4.044 3.478m-1.946-5.902s3.72.242 4.125 4.205m.811-5.582c.08 0 2.507 4.286 2.103 5.66m2.671-5.256s.97 4.125.242 5.418m2.828-3.801c0 .08.08 4.77.08 4.77m-4.767-11.237s2.345.89 2.183 3.154m-.007-5.261s2.992 1.7 2.668 4.934m.815-6.301s2.588 3.072 1.617 6.47m2.907-5.748s-.972 3.8-.568 5.338m3.318-2.749s-1.697 1.294-.808 2.912m-13.905 11.888s.565 2.91 0 3.396m-3.724-5.09s1.86 3.234 1.212 4.852m-5.177-5.015s2.103 2.426 2.022 4.367m-5.255-3.886s1.94 1.86 1.78 2.91m-3.475-.08s1.86 1.94 1.78 2.345" stroke-width="1.075" stroke="#3ec26d" stroke-linecap="round" fill="none"/>
    <path d="M300.89 252.21l26.748-.477s17.674 0 19.585 5.732c3.343-7.642 18.628-7.164 18.628-7.164 9.236-.317 18.47-.637 27.705-.955l.48 66.873c-5.415 25.953-24.203 44.263-44.902 52.065-24.68-7.962-40.283-28.82-45.378-52.543l-2.865-63.53z" fill-rule="evenodd" stroke="#000" stroke-width=".86pt" fill="#fff"/>
    <path d="M310.418 251.96l38.964 103.84 35.2-106.098c-10.918.704-34.347-1.72-37.258 8.244-4.503-8.917-29.15-5.322-36.906-5.982z" fill-rule="evenodd" stroke="#000" stroke-width=".86pt" fill="#006b00"/>
    <path d="M336.94 308.18c1.5.784 1.458-28.18 3.426-29.08.563-2.398.845-3.448 1.547-5.996-1.687-2.998-9.28-2.848-12.09-.3 1.264 4.048 1.826 5.397 1.826 5.397 3.796 6.146 3.042 30.633 5.29 29.98z" fill-rule="evenodd" stroke="#006b00" stroke-linecap="round" stroke-width=".593" fill="#ffc900"/>
    <path stroke-linejoin="round" d="M326.5 84.31s2.753-3.127 2.878-3.877c.126-.75 12.512-1.25 19.893-15.014 4.13-7.258 0-3.004 0-3.004l-.25-3.503s5.13-4.88 3.255-7.507c-1.877-2.627-1.252 3.378-4.255 3.253-3.002-.126-1.376-6.507-1.376-6.507s-.25-.75-1.126-1.126c-1.25.125-.876 2.377-2.002 2.627-1.125.25-2.126-5.255-2.126-5.255s-1.877-2.503-3.504 5.38c.876 8.382 6.256 6.756 6.256 12.26 0 5.505-4.754 9.76-6.13 9.884-1.377.126-.877-4.63-.877-4.63s-.75-2.25-1.25-2.25 2.752-.5 2.252-6.757c-1.127-7.507-2.002 1.75-4.004 1.376s-.5-6.88.25-7.632-.876-3.877-5.255 4.13c-.375 3.88-.876-1-1.75-.75-1.503 3.127-1.253 5.38.874 8.257 3.128 2.877 5.13 5.755 5.005 7.256-.125 1.502-1.75 4.88-4.004 4.88s.125-4.13 0-5.505c-.125-1.376-3.878-6.38-3.878-6.38s-2.628-4.255-2.377-4.38c.25-.125-.25-.75-1.502 3.628s-2.753-2.877-2.753-2.877-1.75 5.38 2.002 8.63c-2.877-.374-3.128.752-3.128.752 0 1.502 3.88 2.127 4.38 4.754s-4.004 4.13-4.004 4.13 1.877 2.627 7.13-2.503c.127 3.253-2 5.505-2 5.505 1.75.792 3.127.71 3.377 2.753z" fill-rule="evenodd" stroke="#000" stroke-width="1.075" fill="#cdad56"/>
    <path stroke-linejoin="round" d="M309.335 84.31s-2.338-3.47-2.444-4.154c-.105-.683-11.502.864-16.895-13.035-3.506-6.603 0-2.732 0-2.732l.213-3.187s-3.732-4.565-2.138-6.955c1.594-2.39.938 3.073 2.988 3.085 2.55-.114 1.168-5.92 1.168-5.92s.212-.684.957-1.025c1.062.114 1.494 3.54 2.452 3.767.955.228 2.93-4.03 3.557-4.907.875-.125.842-3.528 2.224 3.645-.744 7.627-7.064 6.147-7.064 11.156 0 5.01 4.038 8.88 5.206 8.994 1.17.114.744-4.212.744-4.212s.637-2.05 1.062-2.05c.426 0-3.713.796-3.29-4.896.958-5.33 3.078.343 4.778 0 1.7-.34-.2-5.635.288-6.443.113-.81 2.62-4.28 3.588 3.38.32 3.53 2.244-3.037 2.988-2.81 1.276 2.847-.564 6.648-2.37 9.266-2.656 2.62-3.856 5.488-3.75 6.854.106 1.366.737 3.063 2.65 3.063 1.913 0 .644-2.38.75-3.633.107-1.252 3.295-5.305 3.295-5.305.626-1 .106-2.87.77-3.735 1.037.01 1.462-1.434 2.525 2.55 1.062 3.986 2.337-2.617 2.337-2.617s1.488 4.895-1.7 7.855c2.445-.34 2.656.683 2.656.683 0 1.367-1.166 1.937-1.592 4.327-.425 2.39 1.273 3.757 1.273 3.757s-1.594 2.39-6.057-2.277c-.107 2.96 1.7 5.01 1.7 5.01-1.487.72-2.655.645-2.87 2.504z" fill-rule="evenodd" stroke="#000" stroke-width=".945" fill="#cdad56"/>
    <path d="M378.083 267.45c-2.33-2.115-2.607-.267-3.754-.74-.562-.236-1.003-.762-1.49-1.24-.426-.437-.93-.617-1.492-.854l-.636 1.88c-.212.625.59 1.663.572 2.603-.16 1.396-.728 2.552-2.48 3.03.5-.99.782-1.038.63-2.246-.075-.604-1.765-1.675-1.557-2.247.31-.92.838-1.982.448-2.9-.72.492-1.66.234-2.38.534-.604.27-.645 1.395-1.486 1.863-.863.403-2.764.203-4.35-.698.97-.735 1.77-.24 2.74-.975.486-.368.464-1.944.95-2.312s1.646-.76 2.13-1.128c-.435-.497-.412-1.284-.848-1.78-.437-.497-2.37-.39-2.808-.887-.872-.993-.706-2.3-1.58-3.295 2.26.81 1.932 1.91 2.498 1.828 1.07-.513 2.138-.615 2.7-.38.56.237 1.63 1.633 2.19 1.87.212-.627.52-1.422.733-2.048.212-.627-.953-1.712-.74-2.34.424-1.25 1.476-2.358 1.9-3.61.152 1.207.353 2.223.505 3.43.076.605 1.263.918 1.34 1.523.075.605-.62 2.007-.545 2.61.65-.13 1.587-.04 2.235-.17.648-.13 1.08-1.637 1.727-1.766 1.297-.258 2.23-.18 3.552.07-.97.904-1.723.843-2.33 1.675-.486.367.188 1.58-1.215 2.432-.527.306-1.912-.062-2.397.306l1.308 1.49s2.396.728 2.832 1.225c.872.995 1.334 2.18 1.095 3.247zm-59.916 1.023c2.33-2.115 2.608-.268 3.754-.74.562-.237 1.003-.763 1.49-1.24.426-.437.93-.618 1.492-.854l.636 1.878s-.59 1.663-.572 2.603c.158 1.4.728 2.555 2.48 3.034-.5-.99-.782-1.04-.63-2.247.076-.604 1.765-1.675 1.557-2.248-.31-.918-.838-1.98-.448-2.9.72.492 1.66.235 2.38.533.604.27.645 1.394 1.486 1.862.863.404 2.764.204 4.35-.696-.97-.738-1.77-.24-2.74-.977-.486-.37-.463-1.944-.948-2.312-.486-.367-1.648-.76-2.133-1.127.436-.497.412-1.284.848-1.78.437-.497 2.37-.39 2.808-.887.872-.994.706-2.302 1.578-3.295-2.257.812-1.93 1.912-2.497 1.828-1.07-.512-2.137-.614-2.7-.378-.56.236-1.627 1.632-2.19 1.868-.21-.626-.52-1.422-.732-2.048-.212-.626.953-1.71.74-2.337-.423-1.253-1.476-2.36-1.9-3.613-.152 1.208-.353 2.223-.505 3.43-.076.605-1.264.92-1.34 1.524-.076.604.62 2.005.545 2.61-.65-.13-1.587-.042-2.235-.17-.648-.13-1.08-1.637-1.728-1.767-1.297-.26-2.23-.18-3.552.07.97.904 1.724.842 2.332 1.675.485.368-.19 1.58 1.213 2.433.526.305 1.913-.06 2.398.307l-1.31 1.49c-.435.496-2.394.728-2.83 1.225-.873.993-1.335 2.18-1.096 3.246z" fill-rule="evenodd" fill="#ffc900"/>
    <path stroke-linejoin="round" d="M375.993 274.14c-2.11 1.65-15.747 5.096-15.887 16.938-.14 11.842 2.39 14.54-.14 14.84-4.922 0-5.625-13.19-5.484-19.036.14-5.847.28-4.947.28-4.947s3.374.9 3.094 3.748c-.28 2.847 3.374-7.045 2.11-9.744 2.248 2.248 5.2 1.348 5.2 1.198 0-.15-1.686-1.948-2.39-3.297-.702-1.35 2.532.75 2.532.75s.14-2.248-2.672-2.1c-3.655 0 .563-1.198.563-1.198s2.108 1.948 3.514-.15c-1.547-1.648-3.796-2.548-3.796-2.548s-1.97-3.747-4.64-4.496c-3.093-.75-2.672 1.348-6.187 1.05-.7 1.347-.7 1.498.705 1.947-2.39 1.65-1.125 4.947-1.125 4.947s3.796-1.65 3.655 1.05c-.14 2.697-2.25 2.248-3.655.6-1.265-.75-1.687.748-1.687.748l1.968 2.098s-3.796-.15-4.78 2.4c2.11-.15 3.235.45 3.235.45s-4.36 1.948-4.782 2.997c-.42 1.05-.56-1.2-.702-1.2-.14 0-4.217-1.498-4.217-1.498l-1.408 6.482s2.814 2.81 4.36 1.91c1.548-.9 4.36-3.597 6.046-2.848-4.92 3.748-9.84 9.144-12.512 9.894-.703-.6-3.093-2.998-4.077-1.8-.983 1.2-.28 2.7.985 2.55 1.265-.15-4.077 1.198-2.952 3.446 1.125 2.25.984 2.1 1.968 1.5.985-.6-.842-.75 2.813-1.8 3.655-1.048 3.514-2.098 3.514-2.098s-.702 1.65-2.67 2.1c-1.968.45-3.516.45-3.093 1.048.42.6 1.264 1.65.983 2.25-.28.598 4.078-3.15 5.203-.15 2.953-.15 4.92-3.748 3.514-5.847.14 2.248 1.547 2.997.703 4.047s6.608-3.448 2.952-6.146c.985 2.25 1.124 4.047 1.124 4.047s1.688-.15 2.11-.75c.42-.6-.844 1.65-.28 2.1.56.45 3.232 2.998 2.107 4.797-.7-1.05-.842-2.7-1.685-2.55-.845.15-4.36 2.7-6.468 2.85s2.53 7.794 2.53 7.794-3.234-.45-3.654-.15c-.422.3-2.53-2.698-2.953-.9-.704 2.25.702 1.35.702 1.35s-1.827-.9-2.81.15c-.985 1.05-1.97 2.098-1.267 2.547.703.45 3.797.45 4.218.3s-3.515.3-3.796.75c-.282.45-.843 2.1 0 2.7s2.953-.3 3.093-.75c.14-.45.282 1.65.282 1.65s3.655.298 3.655-3.45.282 2.7.282 2.7 3.654.598 3.794-3.15.422 2.55.422 2.55 2.39-.75 2.39-1.35c0-.6-.14 7.495-1.827 9.744-2.673-1.8-4.36 1.198-4.36 1.198s.14 4.348-.14 5.397c-.28 1.048 1.827-.6 1.968-1.05.14-.45 2.67-1.65 2.812-1.95l.843-1.798s-.563 2.098-1.546 2.398-1.97 1.35-1.548 2.25c.422.898 1.97 1.498 2.53 2.397.563.9 2.53-5.246 2.53-5.246l.142 1.35s2.53-.6 2.812-1.8c.28-1.198-2.67-2.247-.28-4.196 2.39-1.948 0 1.8 0 1.8s.842 2.847 1.405 2.847 1.966-5.395.56-6.745c-1.405-1.348 2.11 1.65 2.11 1.65s1.97-5.546-.14-6.296-3.094-1.05-3.094-1.05 1.125-1.5.563-1.65 2.95 3.3 3.514 2.4 1.406-3.6-2.67-5.097c-4.08-1.5-.142-5.697-.142-5.697s2.53 2.998 4.36 1.35c1.826-1.65-.142-1.65-.142-1.65s5.202-3.296 5.342-4.946c-.984-.15-2.67.15-2.67.15s2.952-1.948 2.25-5.096c-1.126 1.648-2.673 1.65-2.673 1.65s2.53-2.55 2.108-4.948c-1.546 1.2-1.406 2.098-2.39 1.8s-2.67-9.744 1.265-10.345c3.937-.597 1.828 4.65 1.97 4.65.14 0 5.904-2.4 0-6.297 1.405-.45 4.357 2.25 4.357 2.25s-1.265-6.598-7.592-2.55c1.547-1.648 2.53-2.698 3.796-2.398 1.266.3 5.766-.15 5.766-1.5-1.125-.9-3.516.45-4.782 0-1.265-.45 8.998-1.2 8.155-6.294z" fill-rule="evenodd" stroke="#006b00" stroke-linecap="round" stroke-width=".593" fill="#ffc900"/>
    <path d="M481.3 118.54s12.247-6.43 18.37 1.53m4.9 12.25c-.306 0-4.286 3.98-5.205 3.98m13.475 8.88s11.328.918 18.676-10.41" transform="matrix(.46 0 0 .49 110.333 220.12)" stroke="#006b00" stroke-linecap="round" stroke-width="1.25" fill="none"/>
    <path d="M525.08 141.81s.92 6.123 2.756 6.123-3.062 1.53-4.9.306c2.144 2.755 3.37 7.654 0 9.49" transform="matrix(.46 0 0 .49 110.333 220.12)" stroke="#006b00" stroke-linecap="round" stroke-width="1.25" fill="none"/>
    <path d="M519.26 218.97s-3.98 4.286-8.88 4.592" fill-rule="evenodd" transform="matrix(.46 0 0 .49 110.333 220.12)" stroke="#006b00" stroke-linecap="round" stroke-width="1.25" fill="#e80000"/>
    <path d="M523.86 199.37s-2.45-12.247-.92-15.31c.92-3.978 4.9-5.51 7.962-10.715m-8.272 17.145s-3.062 7.348-16.533 4.9m20.213-23.27s.92 9.797-11.328 6.123M511.3 128.04s-4.9 4.287-3.062 10.104" transform="matrix(.46 0 0 .49 110.333 220.12)" stroke="#006b00" stroke-linecap="round" stroke-width="1.25" fill="none"/>
    <path d="M353.732 277.596s2.955-1.2 3.517-1.8c.562-.6 1.547-1.8 1.828-2.7.282-.9-1.97-2.25-.844-4.2.704-.9 1.688-1.05 3.377 0 1.69 1.05-1.547-3.3-3.235-3.45s-2.814 1.2-3.236.9c-.423-.3.14 1.2-.564 1.2s1.407 1.2 1.267 1.95c-.14.75 2.25 3.3 2.11 3.9-.14.6-3.517 4.05-4.22 4.2z" fill-rule="evenodd" fill="#006b00"/>
    <path stroke-linejoin="round" d="M534.27 97.112c2.794-.636 3.243.07 2.755 2.45-1.31-.66-1.79-1.218-2.755-2.45z" fill-rule="evenodd" transform="matrix(.46 0 0 .49 110.333 220.12)" stroke="#ffc900" stroke-linecap="round" stroke-width="1.25" fill="#ffc900"/>
    <path stroke-linejoin="round" d="M514.71 233.52s-1.033 6.41 1.49 6.946c-.125-2.48.537-4.176 1.157-4.837-.538-.25-2.522-2.068-2.647-2.11zm-5.68-7.89c-2.316-.33-6.23 1.59-5.105 3.91 1.88-1.62 3.626.135 4.94-1.518.405-.453.29-1.812.165-2.392zm-.02-4.58s-3.65-.58-4.157 1.948c2.52-.32 3.274-.59 4.11-.06.24-.54.007-1.762.047-1.888z" fill-rule="evenodd" transform="matrix(.46 0 0 .49 110.333 220.12)" stroke="#006b00" stroke-width="1.25" fill="#e80000"/>
    <path stroke-linejoin="round" d="M493.54 184.94s2.19.828 2.81 3.06c1.737-1.075 2.565-5.83-2.81-3.06zm-5.42 5.45c.083-.04 4.59-2.77 5.045-.165-.952.95-1.365 1.57-2.11 1.778-.578 0-1.736-1.778-2.935-1.613zm-.45 8.85c.082-.042 2.894-2.522 3.97-.868 1.074 1.653-.87 1.57-.87 1.57s-.992-.454-3.1-.702zm-3.97-49.28c-.04 0-3.597-1.364-5.085 1.116 2.357.29 3.184 1.117 4.258 1.944-.29-1.034-.785-2.605.827-3.06zm-6.9 18.56s.165-4.176 2.15-5.87c1.116.62 1.446 1.61 2.19 2.852-1.487.33-3.472.413-4.34 3.018zm9.5-2.98s-3.928 1.82-2.646 3.804c1.282-1.364 2.688-.95 2.688-.992s0-2.77-.042-2.812z" fill-rule="evenodd" transform="matrix(.46 0 0 .49 110.333 220.12)" stroke="#006b00" stroke-width="1pt" fill="#e80000"/>
    <path stroke-linejoin="round" d="M480.64 125.6c-1.406 1.57 1.736 5.003 5.044 4.507.827-3.72-4.217-5.664-5.044-4.507z" fill-rule="evenodd" transform="matrix(.46 0 0 .49 110.333 220.12)" stroke="#006b00" stroke-width="1pt" fill="#ffc900"/>
    <path d="M331.183 278.13c-.317.857.943 2.06 1.672 1.72.297-.877-1.343-2.402-1.672-1.72z" fill="none"/>
    <path stroke-linejoin="round" d="M484.28 122.75s.62 2.936 3.473 2.15c-.455-2.274-2.44-3.97-2.44-3.97-.123.663.414 1.696-1.033 1.82zm1.9 8.52s1.57 1.695 4.672-1.778c-1.405.413-3.886-.827-3.886-.827s0 2.398-.786 2.605z" fill-rule="evenodd" transform="matrix(.46 0 0 .49 110.333 220.12)" stroke="#006b00" stroke-width="1pt" fill="#e80000"/>
    <path stroke-linejoin="round" d="M480.46 118.86c-1.406 1.57.583 3.762 3.89 3.266.828-3.72-3.063-4.423-3.89-3.266z" fill-rule="evenodd" transform="matrix(.46 0 0 .49 110.333 220.12)" stroke="#006b00" stroke-width="1pt" fill="#ffc900"/>
    <path d="M144.62 266.62s7.037-2.01 10.77 1.005 3.735.287 3.735.287 5.457 2.01 7.037 1.58-1.148.144 1.006-1.15c2.154-1.29-4.31.29-4.883-2.44-1.006-1.724.143-3.878-2.154-3.16-1.58-2.01 1.006-3.446.43-5.6-1.578 1.148-2.44-.432-3.733 2.44-3.015-.574-.43-4.74-3.734-5.17 0 3.016-2.442 3.16-2.585 4.883-1.436 1.006-7.755 4.74-5.888 7.325z" fill-rule="evenodd" fill="url(#e)" transform="matrix(.86 0 0 .86 207.27 41.7)"/>
    <path d="M261.987 467.9c3.926-.95 25.203 4.696 33.405 13.49-1.74-15.662-6.08-27.66-6.08-27.66s-12.68-3.618-14.42-1.877c-2.552 2.688-10.22 10.743-12.905 16.046zm-6.487-72.344c-1.49.248-2.983 1.243-4.474 3.73-1.74 4.225-2.984 14.915-5.47 17.402-2.486 2.486-4.724 2.734-4.724 4.972 0 2.237.25 7.458 6.962 9.447 6.712.25 17.403-10.69 17.403-10.69s5.47-5.967 7.706-12.43c-12.927 4.474-22.126-7.46-17.402-12.43z" fill-rule="evenodd" stroke="#000" stroke-width=".86pt" fill="#c01500"/>
    <path d="M442.47 465.405c-3.895-.943-25.417 4.67-33.556 13.413 1.728-15.57 6.034-27.5 6.034-27.5 1.502-.41 12.444-3.596 14.172-1.865 2.533 2.673 10.686 10.68 13.35 15.952zm6.03-71.922c1.48.247 2.004 2.192 3.212 4.663 1.726 4.2 3.506 10.322 5.974 12.793 2.466 2.472 4.687 6.133 4.687 8.358 0 2.223-.52 5.23-7.18 7.206-6.662.247-16.314-8.305-16.314-8.305s-5.428-5.934-7.65-12.36c12.83 4.45 21.138-7.005 17.27-12.357z" fill-rule="evenodd" stroke="#000" stroke-width="1.139" fill="#c01500"/>
    <path d="M248.043 454.233s13.424 9.2 13.674 13.425c36.05-53.452 128.036-70.11 180.496-3.73 6.96-9.198 14.17-12.18 14.17-12.18-55.193-72.103-165.084-63.15-208.342 2.485z" fill-rule="evenodd" stroke="#000" stroke-width=".86pt" fill="#fb0"/>
    <g stroke="#000" fill-rule="evenodd" fill="#1e5aa6">
      <path d="M384.93 249.86l5.258-.124-9.39 11.893 11.27 13.145-22.162 27.92 20.91 25.166c-2.296 5.635-4.968 10.77-8.515 15.4l-12.018-13.27 21.785-27.17-17.904-20.282 10.767-32.677zm-75.12 2.376l-5.634.125 10.516 11.394-11.143 13.898 23.16 25.165-19.155 25.666c2.296 5.634 5.593 11.894 9.14 16.526l11.393-14.4-23.412-26.04 17.152-21.785-12.02-30.55z" stroke-width="1.147"/>
      <path d="M335.85 319.844l-8.263 11.018 29.548 34.18c5.217-2.63 9.307-5.634 13.772-9.265l-15.4-17.78 6.26-18.404 9.015 10.392-28.17 35.933c-4.716-2.003-9.933-5.133-14.65-9.015l14.9-18.905-7.01-18.154zm-9.14-17.152l5.385 6.76-3.505-9.14-1.88 2.38z" stroke-width="1.147"/>
      <path d="M365.274 308.673c.118-.125 4.345-5.76 4.345-5.76l-1.645-2.253-2.7 8.013z" stroke-width="1.111"/>
    </g>
    <text font-weight="bold" transform="matrix(.56 -.65 .65 .56 207.27 41.7)" font-size="14" y="362.397" x="-328.344" font-family="Timmons">
      <tspan x="-328.344" y="362.397">L</tspan>
    </text>
    <text font-weight="bold" transform="matrix(.6 -.6 .6 .6 207.27 41.7)" font-size="14" y="384.266" x="-292.335" font-family="Timmons">
      <tspan x="-292.335" y="384.266">E</tspan>
    </text>
    <text font-weight="bold" transform="matrix(.66 -.47 .5 .65 207.27 41.7)" font-size="14" y="451.681" x="-239.78" font-family="Timmons">
      <tspan x="-239.78" y="451.681">O</tspan>
    </text>
    <text font-weight="bold" transform="matrix(.7 -.48 .48 .7 207.27 41.7)" font-size="14" y="429.958" x="-188.526" font-family="Timmons">
      <tspan x="-188.526" y="429.958">T</tspan>
    </text>
    <text font-weight="bold" transform="matrix(.78 -.37 .37 .78 207.27 41.7)" font-size="14" y="451.479" x="-115.426" font-family="Timmons">
      <tspan x="-115.426" y="451.479">E</tspan>
    </text>
    <text font-weight="bold" transform="matrix(.8 -.35 .35 .8 207.27 41.7)" font-size="14" y="453.046" x="-94.111" font-family="Timmons">
      <tspan x="-94.111" y="453.046">R</tspan>
    </text>
    <text font-weight="bold" transform="matrix(.8 -.32 .32 .8 207.27 41.7)" font-size="14" y="454.982" x="-68.371" font-family="Timmons">
      <tspan x="-68.371" y="454.982">R</tspan>
    </text>
    <text font-weight="bold" transform="matrix(.86 -.07 .07 .86 207.27 41.7)" font-size="14" y="445.666" x="112.016" font-family="Timmons">
      <tspan x="112.016" y="445.666">R</tspan>
    </text>
    <text font-weight="bold" transform="matrix(.86 0 0 .86 207.27 41.7)" font-size="14" y="430.793" x="180.225" font-family="Timmons">
      <tspan x="180.225" y="430.793">R</tspan>
    </text>
    <text font-weight="bold" transform="matrix(.75 .43 -.43 .75 207.27 41.7)" font-size="14" y="275.217" x="414.759" font-family="Timmons">
      <tspan x="414.759" y="275.217">R</tspan>
    </text>
    <text font-weight="bold" transform="rotate(39.9 46.5 307.186) scale(.86)" font-size="14" y="193.05" x="483.878" font-family="Timmons">
      <tspan x="483.878" y="193.05">E</tspan>
    </text>
    <text font-weight="bold" transform="matrix(.83 .16 -.13 .82 207.27 41.7)" font-size="14" y="414.028" x="309.116" font-family="Timmons">
      <tspan x="309.116" y="414.028">O</tspan>
    </text>
    <text font-weight="bold" transform="matrix(.78 -.1 .12 .84 207.27 41.7)" font-size="14" y="459.272" x="105.058" font-family="Timmons">
      <tspan x="105.058" y="459.272">O</tspan>
    </text>
    <text font-weight="bold" transform="matrix(.8 -.3 .3 .8 207.27 41.7)" font-size="14" y="455.835" x="-45.708" font-family="Timmons">
      <tspan x="-45.708" y="455.835">A</tspan>
    </text>
    <text font-weight="bold" transform="matrix(.6 .6 -.6 .6 207.27 41.7)" font-size="14" y="144.724" x="518.35" font-family="Timmons">
      <tspan x="518.35" y="144.724">A</tspan>
    </text>
    <text font-weight="bold" transform="matrix(.84 .17 -.17 .84 207.27 41.7)" font-size="14" y="388.298" x="271.188" font-family="Timmons">
      <tspan x="271.188" y="388.298">A</tspan>
    </text>
    <text font-weight="bold" transform="matrix(.85 -.16 .16 .85 207.27 41.7)" font-size="14" y="455.168" x="40.322" font-family="Timmons">
      <tspan x="40.322" y="455.168">M</tspan>
    </text>
    <text font-weight="bold" transform="matrix(.86 -.1 .1 .86 207.27 41.7)" font-size="14" y="448.079" x="94.429" font-family="Timmons">
      <tspan x="94.429" y="448.079">P</tspan>
    </text>
    <text font-weight="bold" transform="matrix(.86 0 0 .86 207.27 41.7)" font-size="14" y="437.607" x="155.088" font-family="Timmons">
      <tspan x="155.088" y="437.607">P</tspan>
    </text>
    <text font-weight="bold" transform="matrix(.75 .42 -.42 .75 207.27 41.7)" font-size="14" y="276.665" x="405.134" font-family="Timmons">
      <tspan x="405.134" y="276.665">P</tspan>
    </text>
    <text font-weight="bold" transform="matrix(.85 .1 -.1 .85 207.27 41.7)" font-size="14" y="409.793" x="232.095" font-family="Timmons">
      <tspan x="232.095" y="409.793">I</tspan>
    </text>
    <text font-weight="bold" transform="matrix(.6 .63 -.63 .6 207.27 41.7)" font-size="14" y="132.089" x="530.392" font-family="Timmons">
      <tspan x="530.392" y="132.089">T</tspan>
    </text>
    <text font-weight="bold" transform="matrix(.7 .52 -.52 .7 207.27 41.7)" font-size="14" y="218.519" x="464.158" font-family="Timmons">
      <tspan x="464.158" y="218.519">T</tspan>
    </text>
    <text font-weight="bold" transform="matrix(.83 .24 -.24 .83 207.27 41.7)" font-size="14" y="361.961" x="313.725" font-family="Timmons">
      <tspan x="313.725" y="361.961">M</tspan>
    </text>
    <text font-weight="bold" transform="matrix(.58 .64 -.64 .58 207.27 41.7)" font-size="14" y="123.248" x="513.704" font-family="Timmons">
      <tspan x="513.704" y="123.248">G</tspan>
    </text>
    <path d="M427.378 214.508s5.188-4.447 8.894-4.57m-8.145 3.952c.123-.124 31.003-4.447 31.99-5.435m-31.87 5.685c.124-.125 34.586-2.966 34.586-2.966m-34.706 3.086s36.685-1.73 38.908.123m-39.037-.243s35.944.245 36.562 1.11m-36.433-1.11l34.584 2.84m-34.954-2.592c.123 0 35.203 3.088 38.66 7.534m1.846 6.295c-.123-.123-11.98-14.205-40.638-13.958m.132.249s19.886 1.358 26.186 8.276m-25.816-8.524s12.845-2.47 26.31 13.71" stroke-width=".86pt" stroke="#fff700" stroke-linecap="round" fill="none"/>
    <path d="M247.4 217.74s20.718.813 20.718 2.844-15.437 5.89-15.64 14.422c-.203 8.53 11.78 9.14 12.593 19.905.814 10.767-9.342 12.39-11.374 15.235-2.03 1.422-6.906 16.656-6.296 25.593.61 8.938 3.25 39.203 7.92 45.296 3.658 2.844 9.142 11.984 15.032 9.14 5.89-2.843 1.828-13.202 1.22-16.046s2.436-7.516 2.436-11.78c0-4.267-2.234-7.72-2.03-8.735.202-1.016 16.452 3.86 15.436 19.906-1.015 16.045-7.515 11.17-7.515 11.17s2.03 19.703-3.048 22.343c-9.14 4.875-15.843-1.015-15.843-1.015l.858 4.007-6.953-3.6s-8.937-12.798-10.968-18.485-4.47-31.077-3.656-36.56c.813-5.486 1.422-37.58 1.016-39.204s-2.03-28.436-1.015-32.5c1.016-4.06 7.313-21.936 7.11-21.936z" fill-rule="evenodd" stroke="#000" stroke-width="1pt" fill="url(#f)" transform="matrix(.86 0 0 .86 207.27 41.7)"/>
    <path d="M400.822 224.416s12.402-12.053 19.564-10.656c3.668 0 .174 2.62.174 2.62s6.29.524 7.162 3.32c.175 1.222-2.97 1.57-2.97 1.57s2.62.525 2.796 2.796-26.552.524-26.726.35z" fill-rule="evenodd" stroke="#000" stroke-width=".86pt" fill="#ff7000"/>
    <path d="M401.518 223.89s13.276-1.746 18.866-7.336m-5.414 3.673s9.78-.35 9.78 1.05" stroke="#000" stroke-width=".86pt" fill="none"/>
    <path stroke-linejoin="round" d="M449.73 363.116s8.385-1.92 10.655-4.89c1.4-1.05 8.735 11.004-10.655 4.89z" fill-rule="evenodd" stroke="#000" stroke-width="1.075" fill="#fff"/>
    <path d="M447.46 293.766s1.048 6.463-1.923 10.83c-1.572 1.747-6.288 4.716-6.288 6.813 0 2.095 1.746 4.89 1.396 7.336s-2.97 4.89-2.795 6.987c0 2.096 2.97 13.276 2.622 13.45m-8.382-66.374s-6.636 2.27-8.034 8.91" stroke="#fff" stroke-linecap="round" stroke-width="1.075" fill="none"/>
    <path d="M429.288 220.227s2.27 6.29 9.608.35c-4.717-6.462-9.608-.175-9.608-.35z" fill-rule="evenodd" stroke="#000" stroke-width=".86pt" fill="#c75b00"/>
    <path d="M434.865 220.086c0 .338-.352.612-.787.612s-.786-.274-.786-.612c0-.338.352-.612.786-.612s.787.274.787.612z" fill-rule="evenodd"/>
    <path d="M369.303 205.633s13.912 15.058 22.913 14.895c1.637 4.42-4.086 8.53-6.378 10.493-4.582-1.472-8.724.27-19.363-12.824.655-8.347 2.99-12.235 2.828-12.563zm18.825-35.028c1.8-5.564 5.4-9.983 8.51-10.474-.817-4.255 6.548-23.077 27.99-30.278 1.308 9.656-9.167 19.15-9.167 19.15s31.59-5.402 37.972-13.422c-.654 3.6-7.037 26.024-40.753 25.86 12.765 12.112-4.093 21.77-11.295 18.822 13.258-10.148-3.764-16.203-13.258-9.657z" fill-rule="evenodd" stroke="#000" stroke-width=".86pt" fill="#fff"/>
    <path d="M398.93 162.754c6.383-4.092 8.674-4.092 13.912-3.274-3.765.49-3.765.655-3.765.655s-.327.49 1.964 2.62c-2.617-.656-4.91-2.13-12.11 0z" fill-rule="evenodd" stroke="#ccc" stroke-width=".86pt" fill="#cccccd"/>
    <path d="M396.47 160.13s12.602-6.71 19.64-11.293" stroke="#000" stroke-width=".86pt" fill="none"/>
    <path d="M385.668 231.003s17.35 4.747 19.313-20.132c-3.763-10.8-9-34.042-.98-40.752-7.366-5.074-15.386.164-15.386.164-.49 1.145-7.038 10.474 1.8 26.842-20.95-5.565-12.44 14.24-12.44 14.24.82-3.11 11.95-6.057 14.73 9.82 1.147 3.927-7.527 9.983-7.036 9.82z" fill-rule="evenodd" stroke="#000" stroke-width=".86pt" fill="#00f"/>
    <path d="M405.147 211.034s18.33-9.82 17.84-32.898c-15.55.328-21.113 20.46-21.113 20.46l3.274 12.438z" fill-rule="evenodd" stroke="#000" stroke-width=".86pt" fill="#00f"/>
    <path d="M322.983 209.89s-13.585 11.785-21.277 8.02c-5.73 3.437-12.44-2.62-12.44-2.62s7.857 28.97 36.008 8.02c-.49-6.382-1.964-12.93-2.29-13.42z" fill-rule="evenodd" stroke="#000" stroke-width=".86pt" fill="#fff"/>
    <path d="M301.543 217.415c1.146-6.056 5.892-9 9.657-3.273 5.074.982 10.148-19.804-7.856-16.367 5.074-27.17-10.147-37.317-10.147-37.317s-5.4 30.115-2.946 35.68c2.456 5.565-3.6-10.31-23.077-14.73-.327 22.75 21.77 33.39 21.77 33.39s6.218 5.727 12.6 2.618z" fill-rule="evenodd" stroke="#000" stroke-width=".86pt" fill="#00f"/>
    <path d="M303.34 197.61s-8.51 7.2-6.546 17.02m-6.379-18s-1.964 7.037 2.29 17.02m-3.6 2.295s3.928-6.383 12.44 1.8" stroke="#000" stroke-width=".86pt" fill="none"/>
    <path d="M290.742 171.75c0-.164-12.93 0-5.238 13.093-5.728 1.8-18.495-6.547-9.657-17.677-28.97-.654-40.754-14.566-40.754-27.332 8.51 8.838 28.806 5.237 36.008 10.638-8.837-8.184-7.037-19.476-7.037-19.476s24.715 7.365 29.133 29.296c-1.473 4.256-2.127 11.785-2.455 11.457z" fill-rule="evenodd" stroke="#000" stroke-width=".86pt" fill="#fff"/>
    <path d="M270.86 149.905c4.77 4.853 17.025 6.303 23.244 11.704" stroke="#000" stroke-width=".86pt" fill="none"/>
    <path d="M276.503 164.224s10.145-1.31 13.085 2.292c-3.97 0-5.293-.983-11.027 1.145 1.618-.817 1.177-2.29 2.06-2.29s-3.677-1.146-4.118-1.146z" fill-rule="evenodd" stroke="#ccc" stroke-width=".815" fill="#cccccd"/>
    <path d="M327.077 84.843s5.564-4.91 11.62-.49c-2.736 8.174-12.603 5.072-12.603 5.072s.328 4.092-.654 6.056c1.975 1.486 3.6 6.384 3.6 6.384s10.15-2.455 12.276 1.964c3.886-.536 6.71 0 6.71 0s7.857-1.964 10.64-1.964c2.78 0 11.62 2.292 12.438 3.93.818 1.635 3.764 12.6 5.728 12.438 1.964-.164-4.746 2.618-6.546-.164-1.8-2.782-1.31 3.6-1.31 3.6s5.565 5.893 6.22 7.202c.654 1.31-3.437 11.948-.328 19.313-2.724.252-2.946 3.11-2.946 3.11-.15 3.242-4.255 4.092-4.255 4.092l-.982-4.42-2.783 1.637 1.146-3.437s3.765-9.166 4.092-12.11c.327-2.947-3.437-8.185-6.383-8.185s-5.074 9.33-5.074 9.33-1.473 7.037-.982 7.692c.492.655-1.963-2.29-1.963-2.29s-1.31 4.254-2.29 5.563c-.983 1.31-3.11 1.8-3.11 1.8s-1.474-4.255-.983-5.89c.49-1.638 8.02-8.02 7.365-12.604-.656-4.582 0-3.436-.165-3.6-.163-.163-3.928-3.437-4.09-5.237-.165-1.8-4.912 2.29-11.13.982-1.904 3.326-2.128 11.62-2.128 11.62s-.655 9.984.654 11.13c1.31 1.145-3.272 3.6-3.272 3.6l-3.274 4.42s-1.145-2.783-1.145-2.62c0 .164-2.293 1.637-2.293 1.637l1.31-3.273c-.08-2.48 3.182-9.246 3.182-14.975 0-5.73.417-11.868.417-11.868s-6.055-.328-5.892 5.892c.164 6.218-1.473 6.546-1.145 8.346.327 1.8 1.964 6.874 1.473 8.347-.49 1.473-2.455 1.964-2.455 1.964l-.49.82s-6.057 2.78-5.894 3.927c.164 1.145-.163-3.274-.163-3.274l-.327-4.746s3.6-2.292 3.6-8.02c0-5.73-.83-6.543-.665-7.852.164-1.31.993-6.06.83-6.55-.164-.492-3.437 1.308-4.42 1.308s1.8-3.437 2.128-5.892c.328-2.455-3.273 2.29-6.22-.49 1.37-3.023 3.438-3.93 3.765-6.22s-2.29 1.964-4.58.327c.185-2.196 2.454-4.092 2.454-4.092s-1.865-.228-2.62 0c-1.472-.49 1.638-2.782 1.8-6.056.165-3.273-1.8-4.582-1.8-4.746 0-.163-3.272-2.945-3.763-4.09-.49-1.146-.49-2.456-.49-2.456s-5.402 3.928-11.785-4.42c5.845-4.99 12.11-1.308 12.11-1.308s1.638-4.583 9.167-4.256c7.53.328 9.002 4.583 8.675 4.092z" fill-rule="evenodd" stroke="#000" stroke-width=".86pt" fill="#923f00"/>
    <path d="M368.253 169.505c.137 0 13.904.408 14.04 7.77.136 7.36-4.226 5.45-4.362 5.45s-10.086-1.225-10.086-1.225l.41-11.996z" fill-rule="evenodd" stroke="#000" stroke-width=".86pt" fill="#00f"/>
    <path d="M354.89 167.458s17.174-.137 16.22 7.36c-.955 7.497-5.317 5.998-5.317 5.998l-8.314-.682-2.59-12.676z" fill-rule="evenodd" stroke="#000" stroke-width=".86pt" fill="#fffeff"/>
    <path d="M345.214 166.64l9.95.82s5.998.816 5.725 6.54c-.273 5.726-6.135 5.863-6.135 5.863l-9.677-.546.136-12.676z" fill-rule="evenodd" stroke="#000" stroke-width=".86pt" fill="#00f"/>
    <path d="M321.908 169.505c-.136 0-13.904.408-14.04 7.77-.136 7.36 4.226 5.45 4.362 5.45s10.087-1.225 10.087-1.225l-.412-11.997z" fill-rule="evenodd" stroke="#000" stroke-width=".86pt" fill="#fff"/>
    <path d="M335.264 167.458s-17.175-.137-16.22 7.36c.954 7.497 5.315 5.998 5.315 5.998l8.314-.682 2.59-12.676z" fill-rule="evenodd" stroke="#000" stroke-width=".86pt" fill="#00f"/>
    <path d="M344.947 166.64l-9.95.82s-5.997.816-5.725 6.54c.273 5.726 6.134 5.863 6.134 5.863l9.678-.546-.137-12.676z" fill-rule="evenodd" stroke="#000" stroke-width=".86pt" fill="#fff"/>
    <path d="M371.59 249.4s7.155-10.546 10.168-9.417c2.636.88.628 9.04-.628 9.792l-9.54-.376zm-49.046 1.882c-2.26-3.138-5.523-11.8-8.536-9.415-2.636.878-.627 9.038.628 9.792l7.908-.378z" fill-rule="evenodd" stroke="#000" stroke-width=".86pt" fill="#5e0043"/>
    <path d="M327.283 230.427s13.942 8.59 18.516 8.812c4.572.222 19.072-11.156 19.072-11.156" stroke="#000" stroke-width=".86pt" fill="none"/>
    <path d="M328.625 196.75l2.677-3.347 13.385 6.804 13.607-6.023 2.677 2.788-15.168 10.708-17.177-10.93z" fill-rule="evenodd" stroke="#000" stroke-width=".86pt" fill="#5e0043"/>
    <path stroke-linejoin="round" d="M317.995 196.57c1.087 1.372 9.738 11.89 11.3 20.59 1.56 8.7-.893-11.934-.893-11.934s10.708 5.242 11.043 8.588c.334 3.346 5.12-.226 5.348-.798L313.79 192.88l4.205 3.69zm52.899-.603s-11.266 14.835-9.927 31.007c-2.324-7.744-.447-20.523-.447-20.523l-2.453 1.563s-2.566 10.93-5.8 12.604c-.546-1.302-.447-1.785-.447-1.785s-3.457 4.462-4.127 4.908c-.67.446.224 15.058.224 15.058s1.16 10.59 2.5 10.48c-1.523.745-3.393 1.903-3.393 1.903l-1.387-28.277 3.172-3.178s4.237-5.13 4.572-10.15c-1.84 1.56-3.904 2.008-3.904 2.008s-.558 7.138-2.23 8.142c-1.674 1.004-1.72 2.866-1.72 2.866l-.397-9.328 25.763-17.295z" fill-rule="evenodd" stroke="#474747" stroke-width="1.075" fill="#474747"/>
    <path d="M345.128 213.14l2.176 44.61" stroke="#000" stroke-linecap="round" stroke-width="1.075" fill="none"/>
    <path d="M317.694 234.443s5.13 3.012 7.027 12.158c16.73-1.226 21.974 4.686 21.974 4.686s13.72-6.58 20.077-5.354c2.23-4.685 8.59-10.708 8.59-10.708" stroke="#000" stroke-width=".86pt" fill="none"/>
    <path d="M310.694 190.72l34.438 22.532 31.008-20.858s6.47-3.57 5.912-6.134-2.788-1.562-3.904-1.116c-1.115.447-32.458 22.642-32.458 22.642l-33.35-21.08s-2.454-.78-2.9.78.92 2.455 1.253 3.235z" fill-rule="evenodd" stroke="#000" stroke-width=".86pt" fill="#b4b6b9"/>
    <path stroke-linejoin="round" d="M372.278 184.873s-8.81-3.74-8.81-.5c0 3.243.248 3.575 1.66 5.654 1.414 2.078-1.08 3.408-1.08 3.408s-.332-.914-.83-2.328c-.5-1.413-5.238-2.41-5.653-4.073-.416-1.662.997-4.323-1.83-4.655-2.826-.334-5.57 1.163-6.15 4.405-.583 3.242-4.24 10.807-4.24 10.807l.5-17.208c6.205.443 17.733 1.8 26.6 2.826-2.66-.415.997.166.914 1.08-.25.75-1.165.832-1.082.583zm-31.175-4.326c-1.58 0-9.476.915-11.47 2.078-1.996 1.164 3.24 2.993 2.576 4.572-.666 1.58-.75 4.74-3.243 4.074-2.494-.664-10.89-4.82-11.14-6.234-.248-1.413-1.994-1.496-1.994-1.496s24.107-3.242 25.27-2.993z" fill-rule="evenodd" stroke="#474747" stroke-width="1.075" fill="#474747"/>
    <path d="M344.904 178.57l-.06 21.14m-16.219-46.047s-9.66 15.684-9.85 16.162" stroke="#000" stroke-width=".86pt" fill="none"/>
    <path d="M161.8 129.74s4.893 6.672 4.337 8.562c2 1.557 4.225 7.784 4.225 7.784" fill-rule="evenodd" stroke="#000" stroke-width="1pt" fill="url(#g)" transform="matrix(.86 0 0 .86 207.27 41.7)"/>
    <path d="M362.672 152.322s-9.085 12.815-8.798 13.77" stroke="#000" stroke-width=".86pt" fill="none"/>
    <path d="M316.213 91.426c-.206.717-1.364.995-2.588.62s-2.048-1.26-1.842-1.976c.206-.717 1.365-.995 2.588-.62s2.05 1.26 1.843 1.976zm3.673-.253c.206.717 1.364.995 2.588.62s2.047-1.26 1.842-1.976c-.206-.717-1.365-.995-2.588-.62s-2.048 1.26-1.842 1.976z" fill-rule="evenodd"/>
    <path stroke-linejoin="round" d="M426.13 356.572s-3.367.63-3.262.947-9.79.63-10 .315c-.212-.316-1.475 1.684-1.475 1.684l1.58-.948s2.42 2.527 3.158 2.316c.737-.21-.315.947-.105 1.158.21.21.948-.42.948-.42l16.36-.275-7.2-4.778z" fill-rule="evenodd" stroke="#000" stroke-width=".86pt" fill="#ff7000"/>
    <path stroke-linejoin="round" d="M432.23 361.663l-13.363.387s-3.37 3.053-3.58 3.79 2.21.947 2.21.947l.738 2.527 1.685-.632s11.36 1.69 21.79-.632c5.265-1.842 6.186-4.053 2.5-5.395-3.683-1.342-11.876-.94-11.98-.992z" fill-rule="evenodd" stroke="#000" stroke-width="1.075" fill="#ff7000"/>
    <path d="M208.37 403.93l27.97-1.246-5.208-4.416 75.647-3.058-2.606-6.002-84.707 3.398 10.192 4.756-22.876.68.68 2.377-6.002-.227s6.68 2.605 6.908 3.737z" fill-rule="evenodd" stroke="#000" stroke-width="1pt" fill="url(#h)" transform="matrix(.86 0 0 .86 207.27 41.7)"/>
    <path d="M239.73 249.42c-2.222-1.11-11.998-2.444-22.884 4.666l.444 25.106s15.997-8.665 23.773-6.666c-.444-7.776-.444-17.774-1.333-23.106z" fill-rule="evenodd" stroke="#000" stroke-width="1pt" fill="url(#i)" transform="matrix(.86 0 0 .86 207.27 41.7)"/>
    <path d="M280.434 321.76l-56.723 56.31m82.003-55.898l-46.037 60.63m43.983-76.454l-61.452 74.398m-1.85-1.032l5.96-6.987m69.054-28.977l-23.84 32.886m-1.029 4.317l.617 12.53m35.14-38.227l-25.278 31.65m20.763-2.462l10.276-16.852m-6.371-3.289l-12.332 13.975m8.632-27.124l-8.425 10.276m-2.47-25.283s-25.69 37.61-25.278 40.692m22.603-45.619c-.616.41-22.196 28.977-22.196 28.977m-1.229 9.033l-3.905 4.728m-4.933 7.202l-5.96 7.808" stroke="#000" stroke-width=".86pt" fill="none"/>
    <path d="M277.627 235.2s-1.74 5.47 0 8.204 12.68 24.86 12.68 24.86 7.458-9.197 10.193-9.446c2.735-.248 1.49 23.867 1.49 23.867s-4.473 4.227-7.208 3.978c-2.735-.248 6.712 9.447 6.464 17.652s-12.43 48.976-16.906 49.722c-4.475.746 1.99-7.458 1.74-9.696-.25-2.236-1.492-.745-2.486-3.23-.995-2.487 1.492-6.216.994-8.702s-2.734-1.99-2.983-3.73 1.492-2.237 1.243-4.225c-.25-1.99-2.983-1.493-2.735-3.233.25-1.74.498-.994.25-4.226-.25-3.232-.747 2.237-3.482 2.486-2.733.25-4.97 6.464-4.97 6.464s-5.47 7.707-10.94 4.226c3.232 6.96.746 9.945-.497 10.193s.994 5.47-1.99 5.72 2.238 11.683-1.242 12.677c3.73 1.74.747 3.98.747 3.98s-8.618.715-6.713 11.932c-25.36-8.935-37.79-24.346-37.54-40.007.248-15.662 5.22-29.833 17.402-35.054 3.48-12.928 9.447-26.85 9.447-26.85s-.994-5.718-.248-9.447c.746-3.73 4.226-7.458 4.226-7.458s-.496-8.95-.247-13.425c.248-4.475 1.99-6.465 2.237-8.95.25-2.486-.746-15.166 1.74-17.403 2.487-2.238 7.21-1.99 9.696-3.48 2.486-1.492 5.718-4.227 8.95-3.98s5.967 2.488 5.967 2.488 12.182 0 12.927 4.724c.746 4.722-2.486 6.462-2.486 6.462s1.74 6.713-5.718 12.928z" fill-rule="evenodd" stroke="#2b2b2b" stroke-width=".86pt" fill="#8a9396"/>
    <path d="M266.852 218.097c.39.722-.5 1.96-1.986 2.764s-3.01.875-3.4.153c-.39-.72.498-1.958 1.986-2.764s3.01-.874 3.4-.153z" fill-rule="evenodd" stroke="#2b2b2b" stroke-width="1.147" fill="#cecfcf"/>
    <path d="M264.787 219.354c0 .455-.414.824-.925.824-.51 0-.924-.37-.924-.824 0-.454.414-.823.924-.823s.925.37.925.824z" fill-rule="evenodd"/>
    <path d="M282.925 227.46s3.02 13.48-.59 22.793m1.519-28.693s5.89 7.792 5.13 17.483m-4.56-19.193c.19 0 4.94 4.18 4.75 7.03m-3.61-8.742s3.23 2.28 3.99 4.56" stroke="#2b2b2b" stroke-width=".537" fill="none"/>
    <path d="M284.044 216.805s-11.592 18.813-10.072 30.595" stroke="#000" stroke-width=".86pt" fill="none"/>
    <path d="M284.804 216.237s-15.393 9.122-18.243 38.957" stroke="#2b2b2b" stroke-width=".537" fill="none"/>
    <path d="M283.094 221.75l-6.082 4.56" stroke="#000" stroke-width=".86pt" fill="none"/>
    <path d="M260.86 256.906s8.552-35.537 23.754-40.667" stroke="#2b2b2b" stroke-width=".537" fill="none"/>
    <path d="M290.505 268.878s8.172-10.262 10.072-9.882c1.9.38 1.33 23.754 1.33 23.754s-6.08 4.56-7.412 4.37c-1.33-.19 6.842 11.023 6.652 15.204-.19 4.18-.38 4.18-.38 4.18s0-2.47-1.9-6.46c-1.9-3.99-.76-8.552-13.113-18.624-3.04-6.27 6.08 3.8 7.98 2.28 1.902-1.52-3.42-14.632-3.23-14.822z" fill-rule="evenodd" stroke="#2b2b2b" stroke-width=".86pt" fill="#2b2b2b"/>
    <path d="M275.978 211.086s-3.435.936-3.904 2.342c-.468 1.405-2.498 2.81-3.59 2.342-1.094-.468-3.125-2.186-3.125-2.186" stroke="#2b2b2b" stroke-width=".86pt" fill="none"/>
    <path stroke-linejoin="round" d="M256.46 223.108s-5.155 5.154-2.656 5.778c2.498.625 5.153-4.06 5.153-4.06s0 7.964 2.186 6.715 8.59-5.777 8.59-5.777 2.185-.156 2.653 0c.47.156 5.934 4.84 9.526 3.123-2.03 5.31-4.373 5.934-4.373 5.934s-3.748 4.84-8.59 3.748c-4.84-1.093-6.09-3.123-6.09-3.123s-4.06.312-5.308-1.562c-1.25-1.874-1.718-2.967-1.718-2.967s-2.342 2.343-2.967 1.25c-.625-1.094 0-7.496 3.59-9.057z" fill-rule="evenodd" stroke="#2b2b2b" stroke-width="1.075" fill="#2b2b2b"/>
    <path d="M285.66 215.927s-9.526-2.81-12.805 1.874c-3.28 4.686-2.498 7.34-.78 7.81" stroke="#2b2b2b" stroke-width=".86pt" fill="none"/>
    <path d="M287.13 215.66c0 1.124-.804 2.034-1.796 2.034s-1.796-.91-1.796-2.033.804-2.033 1.796-2.033 1.796.91 1.796 2.034z" fill-rule="evenodd"/>
    <path d="M259.407 239.964s3.884 5.976 8.515 7.62-3.212 3.062-7.843-.075c-3.362-4.558-2.466-7.844-2.466-7.844s.896-.897 1.793.298zm33.24 35.26s-10.906-15.162-14.043-15.984c-3.138-.822 2.39-1.494 5.75 1.718 3.362 3.212-.895-5.23-.895-5.23l9.186 19.496z" fill-rule="evenodd" stroke="#2b2b2b" stroke-width=".86pt" fill="#2b2b2b"/>
    <path stroke-linejoin="round" d="M258.362 362.84c4.183-1.12 22.408 10.46 26.516 13.372 4.108 2.913 12.698 1.045 12.698 1.045s-3.96 2.39-6.424 2.988 7.32.598 7.32.598-23.305 6.423-46.983-6.05c-2.167-9.71 5.078-11.877 6.87-11.952z" fill-rule="evenodd" stroke="#2b2b2b" stroke-width="1.075" fill="#2b2b2b"/>
    <path d="M285.028 278.957s-3.063-.598-4.63-2.39c-1.57-1.793-3.81-6.2-6.126-8.068s-13.894-8.217-18.077-7.77c-4.183.45-5.452-.447-5.975-.97-.523-.523-2.24.224-1.942 2.39.298 2.167-3.212 6.947-1.942 9.188 1.27 2.24 7.245 11.353 8.44 11.652 1.195.3.448 5.303.448 5.303s5.304 5.378 6.648 5.677c1.345.3 2.69 1.27 2.54 2.54-.15 1.27-5.826 8.216-5.826 8.216s-6.125 3.212-6.2 5.005c-.075 1.793 1.494 5.528 6.35 6.723 4.854 1.195 17.926.224 18.598-.896.672-1.12 1.718-7.843 1.27-8.515-.448-.673-3.66-2.69-5.303-2.39-1.643.298-3.137 1.643-2.987 1.94.15.3-2.316 1.57-2.316.375s4.855-6.573 5.304-6.125c.45.448 7.32 1.12 8.59 4.556s1.27 5.9 4.856 5.528c3.585-.374 8.59-3.66 9.037-10.532.45-6.872-4.033-11.503-5.154-12.175-1.12-.673-4.856-2.914-5.155-3.96-.298-1.045-1.045-4.48-.448-5.303z" fill-rule="evenodd" stroke="#2b2b2b" stroke-width=".86pt" fill="#2b2b2b"/>
    <path d="M220.416 309.29s11.577-2.99 14.566-2.914c2.988.075 14.266 5.303 17.553 8.515 3.287 3.213 10.01 10.832 14.416 10.16 4.408-.673 5.678-1.57 5.678-1.57l-1.718 3.287s-3.585.97-5.378.523c-1.792-.448-5.303-1.568-8.814-5.004-3.51-3.436-14.34-12.698-23.53-12.026-9.186.672-14.49 9.71-14.49 9.71s.075-4.407.45-5.378c.372-.97-1.944 2.09-1.944 2.09l3.212-7.394z" fill-rule="evenodd" stroke="#2b2b2b" stroke-width=".86pt" fill="#2b2b2b"/>
    <path d="M263.067 318.25c.074.075 2.913.822 7.693.822s7.32-2.092 7.32-2.092l-.298-1.867.747-2.614s3.66 3.733 3.584 4.48c-.075.747-1.494 1.046-1.494 1.046l-.523-1.793-1.27 1.57s-6.946 5.526-10.756 4.705c-3.808-.822-7.32-3.287-6.348-3.884s1.494-.374 1.345-.374zm-16.881 9.787s-4.183-.075-6.05.822c-1.868.895-2.54 2.015-3.81 1.866-1.27-.15-2.24-1.793-1.867-2.465.522-1.045 2.987-2.39 7.692-2.016s4.034 1.793 4.034 1.793zm14.641 11.353c0-.225-.3-6.126-2.615-8.516s-5.154-2.39-6.424-2.092c-1.27.3 4.706 2.913 5.304 4.63.597 1.72 2.54 6.5 2.017 7.695-.524 1.195-1.495-3.36-5.155-4.63s-8.74-.6-7.694 1.045 5.155.15 7.246 3.66 3.66 7.245 3.66 7.245l.673-2.54 1.866-.522.224-4.856.897-1.12z" fill-rule="evenodd" stroke="#2b2b2b" stroke-width=".86pt" fill="#2b2b2b"/>
    <path stroke-linejoin="round" d="M257.84 358.507l-3.81-7.62s-1.196-4.854-4.408-6.2c-3.212-1.343-7.47-1.12-7.544.524-.074 1.644 6.872 3.736 7.32 4.632.45.897.224 2.39-.373 2.465-.598.075-3.66-1.12-5.23-.747-1.567.374-2.464 2.39-4.78 1.793-2.315-.598-4.257-7.993-3.36-8.74.896-.746-1.718 1.345-2.24-.597-.524-1.942.746-7.992-.15-8.74-.897-.746-5.23-3.36-5.304-3.883-.074-.523.225-29.73 24.65-5.528-10.457-12.4-14.566-11.054-16.507-11.13-1.42 0-10.906.822-13.296 12.923-2.39 12.1-5.23 4.557-5.23 4.557s-.522 5.228 2.018 6.722c2.54 1.494-1.195 5.826-1.195 5.826s-4.556-11.13-3.884-15.985c-.897 3.885-.822 13.52 4.93 24.052 6.722 7.096 13.072 13.67 29.953 21.064 8.888-13.595 8.44-15.237 8.44-15.387z" fill-rule="evenodd" stroke="#2b2b2b" stroke-width="1.075" fill="#2b2b2b"/>
    <path stroke-linejoin="round" d="M241.854 358.584s4.93.598 6.274 3.137c1.345 2.54 1.942 6.425 1.942 6.425.822-1.643 1.196-3.062 2.84-4.257s2.837-1.345 2.763-2.24c-.075-.898-5.23-6.35-7.843-6.65-2.615-.298-7.17 2.84-7.17 2.84s-.823 1.194 1.194.746z" fill-rule="evenodd" stroke="#2b2b2b" stroke-width="1.075" fill="#8a9396"/>
    <path d="M253.114 371.433s12.776 5.824 33.82 6.2" stroke="#8a9396" stroke-linecap="round" stroke-width="1.075" fill="none"/>
    <path d="M295.764 312.127s-1.1 10.72-9.345 31.88" stroke="#2b2b2b" stroke-linecap="round" stroke-width="1.075" fill="none"/>
    <path d="M294.12 318.723s-2.472 7.696-9.343 13.467" stroke="#2b2b2b" stroke-width=".86pt" fill="none"/>
  </g>
</svg>
<svg xmlns="http://www.w3.org/2000/svg" height="512" width="512" id="flag-icon-css-om">
  <defs>
    <clipPath id="a">
      <path fill-opacity=".67" d="M0 0h512v512H0z"/>
    </clipPath>
  </defs>
  <g clip-path="url(#a)">
    <path fill-rule="evenodd" fill="#ef2d29" d="M-23.298-21.609h554.71v553.02h-554.71z"/>
    <path fill-rule="evenodd" fill="#009025" d="M164.57 341.33h376.55v207.56H164.57z"/>
    <path fill-rule="evenodd" fill="#fff" d="M164.57-19.415h376.55v190.08H164.57z"/>
    <g stroke="#ef2d28">
      <g fill-rule="evenodd" fill="#fff" transform="matrix(.19516 0 0 .17447 109.217 -5.34)">
        <rect rx="11.491" ry="12.053" height="85.039" width="138.19" y="467.72" x="17.717" stroke-width="1.43"/>
        <rect rx="10.901" ry="11.049" height="77.953" width="131.1" y="471.26" x="21.26" stroke-width="1pt"/>
        <path d="M64.966 396.07l9.723.443.442 5.745 7.955 5.303 6.187-6.629 7.513 5.303-7.07 5.746 1.767 7.955 8.838-.442v10.607l-7.07-.442-3.536 6.629 7.955 7.513-6.187 6.187-6.63-6.629-9.722 2.652.442 9.723-10.607.884-1.326-9.281-8.839-4.862-4.861 6.629-7.514-4.861 4.42-7.513-5.304-4.862H34.03l-.442-13.7 7.513.884 5.304-7.955-6.187-6.187 7.955-7.071 5.745 5.745 9.723-1.768 1.326-5.746z" transform="matrix(.68108 0 0 .5852 37.972 260.74)" stroke-width="1pt"/>
        <ellipse transform="matrix(.65819 0 0 .70224 38.845 209.62)" cx="68.944" rx="11.049" cy="426.78" ry="9.944" stroke-width="1pt"/>
        <path d="M38.976 474.8l-10.63 10.63m17.717-10.63l-10.63 10.63m17.716-10.63l-10.63 10.63m17.717-10.63l-10.63 10.63m17.716-10.63l-10.63 10.63m17.717-10.63l-10.63 10.63m17.717-10.63l-10.63 10.63m17.716-10.63l-10.63 10.63m17.717-10.63l-10.63 10.63m17.716-10.63l-10.63 10.63m17.717-10.63l-10.63 10.63m17.717-10.63l-10.63 10.63M88.582 474.8l-10.63 10.63m46.063-10.63l-10.63 10.63m17.717-10.63l-10.63 10.63m17.717-10.63l-10.63 10.63m17.717-10.63l-10.63 10.63m-.002-10.63l10.63 10.63m-17.71-10.63l10.63 10.63m-17.72-10.63l10.63 10.63m-17.72-10.63l10.63 10.63m-17.71-10.63l10.63 10.63m-17.72-10.63l10.63 10.63m-17.72-10.63l10.63 10.63m-17.71-10.63l10.63 10.63m-17.72-10.63l10.63 10.63m-17.72-10.63l10.63 10.63m-17.71-10.63l10.63 10.63M56.693 474.8l10.63 10.63m17.721-10.63l10.63 10.63M49.607 474.8l10.63 10.63M42.52 474.8l10.63 10.63M35.434 474.8l10.63 10.63M28.347 474.8l10.63 10.63M38.976 535.036l-10.63 10.63m17.717-10.63l-10.63 10.63m17.716-10.63l-10.63 10.63m17.717-10.63l-10.63 10.63m17.716-10.63l-10.63 10.63m17.717-10.63l-10.63 10.63m17.717-10.63l-10.63 10.63m17.716-10.63l-10.63 10.63m17.717-10.63l-10.63 10.63m17.716-10.63l-10.63 10.63m17.717-10.63l-10.63 10.63m17.717-10.63l-10.63 10.63m-17.717-10.63l-10.63 10.63m46.063-10.63l-10.63 10.63m17.717-10.63l-10.63 10.63m17.717-10.63l-10.63 10.63m17.717-10.63l-10.63 10.63m-.002-10.63l10.63 10.63m-17.71-10.63l10.63 10.63m-17.72-10.63l10.63 10.63m-17.72-10.63l10.63 10.63m-17.71-10.63l10.63 10.63m-17.72-10.63l10.63 10.63m-17.72-10.63l10.63 10.63m-17.71-10.63l10.63 10.63m-17.72-10.63l10.63 10.63m-17.72-10.63l10.63 10.63m-17.71-10.63l10.63 10.63m-17.721-10.63l10.63 10.63m17.721-10.63l10.63 10.63m-46.067-10.63l10.63 10.63m-17.717-10.63l10.63 10.63m-17.716-10.63l10.63 10.63m-17.717-10.63l10.63 10.63" stroke-width="1pt"/>
      </g>
      <g fill-rule="evenodd" fill="#fff" transform="matrix(.19516 0 0 .17447 18.63 -5.958)">
        <rect rx="11.491" ry="12.053" height="85.039" width="138.19" y="467.72" x="17.717" stroke-width="1.43"/>
        <rect rx="10.901" ry="11.049" height="77.953" width="131.1" y="471.26" x="21.26" stroke-width="1pt"/>
        <path d="M64.966 396.07l9.723.443.442 5.745 7.955 5.303 6.187-6.629 7.513 5.303-7.07 5.746 1.767 7.955 8.838-.442v10.607l-7.07-.442-3.536 6.629 7.955 7.513-6.187 6.187-6.63-6.629-9.722 2.652.442 9.723-10.607.884-1.326-9.281-8.839-4.862-4.861 6.629-7.514-4.861 4.42-7.513-5.304-4.862H34.03l-.442-13.7 7.513.884 5.304-7.955-6.187-6.187 7.955-7.071 5.745 5.745 9.723-1.768 1.326-5.746z" transform="matrix(.68108 0 0 .5852 37.972 260.74)" stroke-width="1pt"/>
        <ellipse transform="matrix(.65819 0 0 .70224 38.845 209.62)" cx="68.944" rx="11.049" cy="426.78" ry="9.944" stroke-width="1pt"/>
        <path d="M38.976 474.8l-10.63 10.63m17.717-10.63l-10.63 10.63m17.716-10.63l-10.63 10.63m17.717-10.63l-10.63 10.63m17.716-10.63l-10.63 10.63m17.717-10.63l-10.63 10.63m17.717-10.63l-10.63 10.63m17.716-10.63l-10.63 10.63m17.717-10.63l-10.63 10.63m17.716-10.63l-10.63 10.63m17.717-10.63l-10.63 10.63m17.717-10.63l-10.63 10.63M88.582 474.8l-10.63 10.63m46.063-10.63l-10.63 10.63m17.717-10.63l-10.63 10.63m17.717-10.63l-10.63 10.63m17.717-10.63l-10.63 10.63m-.002-10.63l10.63 10.63m-17.71-10.63l10.63 10.63m-17.72-10.63l10.63 10.63m-17.72-10.63l10.63 10.63m-17.71-10.63l10.63 10.63m-17.72-10.63l10.63 10.63m-17.72-10.63l10.63 10.63m-17.71-10.63l10.63 10.63m-17.72-10.63l10.63 10.63m-17.72-10.63l10.63 10.63m-17.71-10.63l10.63 10.63M56.693 474.8l10.63 10.63m17.721-10.63l10.63 10.63M49.607 474.8l10.63 10.63M42.52 474.8l10.63 10.63M35.434 474.8l10.63 10.63M28.347 474.8l10.63 10.63M38.976 535.036l-10.63 10.63m17.717-10.63l-10.63 10.63m17.716-10.63l-10.63 10.63m17.717-10.63l-10.63 10.63m17.716-10.63l-10.63 10.63m17.717-10.63l-10.63 10.63m17.717-10.63l-10.63 10.63m17.716-10.63l-10.63 10.63m17.717-10.63l-10.63 10.63m17.716-10.63l-10.63 10.63m17.717-10.63l-10.63 10.63m17.717-10.63l-10.63 10.63m-17.717-10.63l-10.63 10.63m46.063-10.63l-10.63 10.63m17.717-10.63l-10.63 10.63m17.717-10.63l-10.63 10.63m17.717-10.63l-10.63 10.63m-.002-10.63l10.63 10.63m-17.71-10.63l10.63 10.63m-17.72-10.63l10.63 10.63m-17.72-10.63l10.63 10.63m-17.71-10.63l10.63 10.63m-17.72-10.63l10.63 10.63m-17.72-10.63l10.63 10.63m-17.71-10.63l10.63 10.63m-17.72-10.63l10.63 10.63m-17.72-10.63l10.63 10.63m-17.71-10.63l10.63 10.63m-17.721-10.63l10.63 10.63m17.721-10.63l10.63 10.63m-46.067-10.63l10.63 10.63m-17.717-10.63l10.63 10.63m-17.716-10.63l10.63 10.63m-17.717-10.63l10.63 10.63" stroke-width="1pt"/>
      </g>
      <path d="M538.58 531.5c1.717 166.56 24.803 201.97 3.543 201.97s-31.89-92.07-31.89-205.51 14.173-205.51 35.433-205.51-8.913 31.909-7.086 209.06z" fill-rule="evenodd" transform="matrix(-.31598 -.12472 -.1982 .19883 339.924 68.244)" stroke-width="1pt" fill="#fff"/>
      <path d="M545.67 779.53l-60.236 17.716c56.693 60.236 120.47 85.039 138.19 74.409 17.717-10.629-31.89-35.433-77.953-92.125z" fill-rule="evenodd" stroke-width="1.25" fill="#fff" transform="matrix(-.19516 0 0 .17447 142.637 -5.34)"/>
      <path d="M547.27 786.9l-50.926 14.74c56.693 60.236 112.77 77.385 127.28 70.015 14.591-7.37-30.287-28.063-76.35-84.755z" fill-rule="evenodd" transform="matrix(-.1901 0 0 .16776 140.18 -.11)" stroke-width="1.292" fill="#fff"/>
      <path d="M353.13 634.23c.187 1.273.748 7.068 1.25 9.375 0 3.186.288 5.632.625 8.125.796 2.177.661 4.198 3.125 5.001 1.694 2.631 2.76 3.313 5 4.375 1.527 1.323 3.84 2.642 6.25 3.75 2.499 1.071 4.771 1.218 7.5.625 2.19-1.526 3.804-3.1 5.625-4.375.429-1.973.822-4.903 1.25-6.875-.674 2.024-1.147 5.265-1.25 8.125.24 3.12 1.265 4.481 2.5 6.875" transform="matrix(-.13744 0 0 .12206 120.788 27.901)" stroke-width="1.781" fill="none"/>
      <path d="M389.38 681.73l.625-.625c-1.484 1.484-.878.776 2.5-1.25 2.426-1.246 5.015-1.908 8.125-2.5h8.75c3.405 0 5.696.511 8.125 1.25 1.762 1.762 4.393 2.763 6.25 4.375 1.905 1.295 2.722 2.829 3.75 5 1.701 1.701 2.803 4.326 4.375 5.625.704 2.871 2.141 2.773 3.125 5-2.948.227-5.311.631-6.875 2.5-2.597 1.344 2.179-1.317 3.125-2.5 2.046-.618 2.576-1.25 5.625-1.25 2.85-.904 4.579.737 7.5 1.25 1.705.987 2.178 1.25 4.376 1.25" transform="matrix(-.13744 0 0 .12206 122.594 27.214)" stroke-width="1.781" fill="none"/>
      <path d="M438.13 724.86c1.273.075 7.083 1.146 9.376 0 2.552-.696 4.068-2.04 5.625-4.375.767-1.689 0 2.998 0 5 .283 3.68 1.366 3.714 3.125 6.25 1.814 1.163 3.725 2.8 5.625 3.75 1.576 1.366 3.513 2.28 5.625 3.125 1.896.898 4.111 1.813 5.625 3.125 2.09 1.493 1.888 3.278 3.125 5.625-.235 3.057-.733 4.79-2.5 6.25-.738 2.113-2.395 4.205-3.75 5.625-1.545 2.87-3.256 4.224.625 5 2.132.914 3.327.197 5.625 0" transform="matrix(-.13744 0 0 .12206 124.655 25.766)" stroke-width="1.781" fill="none"/>
      <path d="M480.63 771.73c1.536-.391 6.983-2.213 9.375-3.125h8.75c3.391.261 4.037 1.256 6.876 2.5 1.832 1.871 3.089 3.162 5.625 4.376 1.341 1.733 3.953 4.677 5 6.875.745 2.133 1.25 5.018 1.25 8.125-.044 3.648-1.002 4.271-1.25 7.5-.701 2.684-1.839 5.143-3.75 7.5-.265.793-.457.986-1.25 1.25" transform="matrix(-.13744 0 0 .12206 125.084 25.383)" stroke-width="1.781" fill="none"/>
      <path d="M538.13 817.98c.374 0 1.201 2.018 2.5 3.75 2.828 2.906 3.192 3.125 7.5 3.125 3.884-.143 3.522-1.532 6.25-2.5 1.289-2.008 2.896-3.6 4.375-6.25 1.006-1.634 1.89-4.129 3.125-5.625 1.141-1.854 2.563-3.254 3.75-5 1.172-.502 1.618-.984 3.126-1.25-3.6.578-3.915 1.867-6.251 3.75-1.094 1.779-2.181 3.633-3.125 5.625-.361 2.673-1.21 4.779-1.25 8.125 0 3.457.017 5.872 1.25 8.75 1.473 1.545 2.563 3.143 4.375 4.376 1.439 1.405 3.244 3.336 4.376 5 1.96 1.206 3.385 2.189 5.625 3.75 1.884 1.102 3.915 2.234 6.875 2.5 3.67-.262 4.755-1.297 7.5-2.5 2.329-1.713 4.163-2.838 6.25-4.375 1.629-1.141 3.288-3.403 4.375-5 3.382-.846 5.529-.508 7.5 1.25a16.536 16.536 0 0 1 4.375 4.375c1.02.51 2.73 1.99 3.75 2.5" transform="matrix(-.09758 0 0 .09635 107.445 46.037)" stroke-width="2.379" fill="none"/>
      <path d="M503.76 836.11c-.802.334-3.717 2.367-5 3.125-.8 2.631-2.077 4.069-2.5 6.875-.677 2.709-.625 5.692-.625 8.75.685 3.194 2.015 5.557 3.125 8.125 1.974 1.342 2.967 2.33 5.625 3.75 2.494.337 4.94.625 8.126.625 1.904.635 5.615.942 7.5 0 2.783-.376 4.854-1.507 6.875-2.5 2.306-1.307 3.728-2.542 6.25-3.75 1.225-1.801 3.13-3.46 5-5.625 1.556-2.105 2.7-3.286 3.75-5.625-.924 2.669-2.327 4.999-3.125 7.5-1.422 2.661-2.248 3.604-2.5 6.875-.871 2.613-.625 5.76-.625 8.75.274 2.031.418 5.837 1.25 7.5v1.875" transform="matrix(-.12132 0 0 .12024 109.33 26.805)" stroke-width="1.91" fill="none"/>
      <path d="M541.26 799.23v.625c0-1.687.041-.83-.625 2.5-1.179 1.462-3.944 1.868-6.25 1.25-2.022-1.67-1.96-2.935-5.625-3.75-3.542.253-4.892 1.279-6.875 2.5-2.354 1.177-3.438 1.771-5 4.375-.776 2.12-1.209 3.555 1.25 4.375 1.954 1.386 4.277 2.149 6.875 2.5 2.887 0 4.968-.339 6.25 1.25 1.983 2.055 1.875 3.277 1.875 6.875.667 1.112.799 4.394 1.25 5.625 1.736.823 2.755 1.25 5.625 1.25.674-1.931 1.423-5.419 1.875-7.5.489-2.248.64-5.379 1.875-6.875a16.58 16.58 0 0 1 4.375-4.375c.766-1.073 2.223-1.965 3.75-2.5-2.452 1.251-2.801 2.603-3.125 5.625 2.155 1.078 2.731 1.833 6.25 1.875 3.459-.291 4.295-1.169 5.625-3.125.242 3.136 1.243 4.186 1.875 6.875 1.286 1.891 1.832 3.828 3.125 6.25-.551 3.012-1.737 3.163-1.875 6.875-.811 2.435-.723 4.783-2.5 6.251-.792.968-1.384 1.158-3.125 1.25 3.618 0 5.727-.391 8.125-1.875 1.854-1.141 3.255-2.563 5.001-3.75 2.212-1.603 4.947-3.085 7.5-3.751 2.887 0 4.968-.339 6.25 1.25 1.77 1.265 2.959 3.447 3.75 6.251.579 3.244.8 5.404-.625 7.5-1.057 2.408-1.297 3.346 0 6.25 1.452 2.033 3.617 2.272 6.875 3.125 2.379-.128 4.668-.671 6.25-1.25" stroke-width="1.25" fill="none" transform="matrix(-.19516 0 0 .17447 142.637 -5.34)"/>
      <g fill-rule="evenodd" stroke-width="1pt" transform="matrix(-.19516 0 0 .17447 142.637 -5.34)">
        <path d="M531.5 359.64c0-165.27 7.937-299.41 17.717-299.41 9.779 0 17.716 134.13 17.716 299.41H531.5z" transform="matrix(1.4216 -.73423 .46161 .89375 -716.84 541.07)" fill="#fff"/>
        <path d="M531.5 359.64c0-165.27 7.937-299.41 17.717-299.41 9.779 0 17.716 134.13 17.716 299.41" transform="matrix(1.1373 -.58739 .44532 .86221 -554.83 471.77)" fill="#fff"/>
        <path d="M563.39 301.18c.189 18.908 0 40.188 0 60.236h-28.347c0-20.048-.189-41.328 0-60.236h28.347z" transform="matrix(1.4216 -.73423 .45889 .88849 -716.67 541.39)" fill="#fff"/>
        <path d="M559.84 304.72c.189 18.908 0 33.102 0 53.15h-21.26c0-20.048-.189-34.242 0-53.15h21.26z" transform="matrix(1.4216 -.73423 .45889 .88849 -716.67 541.39)" fill="#fff"/>
        <path transform="matrix(1.4216 -.73423 .45889 .88849 -716.67 541.39)" fill="#fff" d="M542.13 311.81h14.173v38.976H542.13zm0 0l14.173 38.976m-14.173.004l14.173-38.976M542.13 113.39h14.173"/>
        <ellipse fill="#ef0000" transform="matrix(1.6046 .45375 -.36215 1.5787 -734.9 -170.85)" cx="545.67" rx="3.543" cy="92.126" ry="3.543"/>
      </g>
      <path d="M538.58 531.5c1.717 166.56 24.803 201.97 3.543 201.97s-31.89-92.07-31.89-205.51 14.173-205.51 35.433-205.51-8.913 31.909-7.086 209.06z" fill-rule="evenodd" transform="matrix(.31598 -.12472 .1982 .19883 -178.657 67.627)" stroke-width="1pt" fill="#fff"/>
      <path d="M545.67 779.53l-60.236 17.716c56.693 60.236 120.47 85.039 138.19 74.409 17.717-10.629-31.89-35.433-77.953-92.125z" fill-rule="evenodd" stroke-width="1.25" fill="#fff" transform="matrix(.19516 0 0 .17447 18.63 -5.958)"/>
      <path d="M547.27 786.9l-50.926 14.74c56.693 60.236 112.77 77.385 127.28 70.015 14.591-7.37-30.287-28.063-76.35-84.755z" fill-rule="evenodd" transform="matrix(.1901 0 0 .16776 21.086 -.727)" stroke-width="1.292" fill="#fff"/>
      <path d="M353.13 634.23c.187 1.273.748 7.068 1.25 9.375 0 3.186.288 5.632.625 8.125.796 2.177.661 4.198 3.125 5.001 1.694 2.631 2.76 3.313 5 4.375 1.527 1.323 3.84 2.642 6.25 3.75 2.499 1.071 4.771 1.218 7.5.625 2.19-1.526 3.804-3.1 5.625-4.375.429-1.973.822-4.903 1.25-6.875-.674 2.024-1.147 5.265-1.25 8.125.24 3.12 1.265 4.481 2.5 6.875" transform="matrix(.13744 0 0 .12206 40.478 27.284)" stroke-width="1.781" fill="none"/>
      <path d="M389.38 681.73l.625-.625c-1.484 1.484-.878.776 2.5-1.25 2.426-1.246 5.015-1.908 8.125-2.5h8.75c3.405 0 5.696.511 8.125 1.25 1.762 1.762 4.393 2.763 6.25 4.375 1.905 1.295 2.722 2.829 3.75 5 1.701 1.701 2.803 4.326 4.375 5.625.704 2.871 2.141 2.773 3.125 5-2.948.227-5.311.631-6.875 2.5-2.597 1.344 2.179-1.317 3.125-2.5 2.046-.618 2.576-1.25 5.625-1.25 2.85-.904 4.579.737 7.5 1.25 1.705.987 2.178 1.25 4.376 1.25" transform="matrix(.13744 0 0 .12206 38.673 26.597)" stroke-width="1.781" fill="none"/>
      <path d="M438.13 724.86c1.273.075 7.083 1.146 9.376 0 2.552-.696 4.068-2.04 5.625-4.375.767-1.689 0 2.998 0 5 .283 3.68 1.366 3.714 3.125 6.25 1.814 1.163 3.725 2.8 5.625 3.75 1.576 1.366 3.513 2.28 5.625 3.125 1.896.898 4.111 1.813 5.625 3.125 2.09 1.493 1.888 3.278 3.125 5.625-.235 3.057-.733 4.79-2.5 6.25-.738 2.113-2.395 4.205-3.75 5.625-1.545 2.87-3.256 4.224.625 5 2.132.914 3.327.197 5.625 0" transform="matrix(.13744 0 0 .12206 36.612 25.149)" stroke-width="1.781" fill="none"/>
      <path d="M480.63 771.73c1.536-.391 6.983-2.213 9.375-3.125h8.75c3.391.261 4.037 1.256 6.876 2.5 1.832 1.871 3.089 3.162 5.625 4.376 1.341 1.733 3.953 4.677 5 6.875.745 2.133 1.25 5.018 1.25 8.125-.044 3.648-1.002 4.271-1.25 7.5-.701 2.684-1.839 5.143-3.75 7.5-.265.793-.457.986-1.25 1.25" transform="matrix(.13744 0 0 .12206 36.183 24.767)" stroke-width="1.781" fill="none"/>
      <path d="M538.13 817.98c.374 0 1.201 2.018 2.5 3.75 2.828 2.906 3.192 3.125 7.5 3.125 3.884-.143 3.522-1.532 6.25-2.5 1.289-2.008 2.896-3.6 4.375-6.25 1.006-1.634 1.89-4.129 3.125-5.625 1.141-1.854 2.563-3.254 3.75-5 1.172-.502 1.618-.984 3.126-1.25-3.6.578-3.915 1.867-6.251 3.75-1.094 1.779-2.181 3.633-3.125 5.625-.361 2.673-1.21 4.779-1.25 8.125 0 3.457.017 5.872 1.25 8.75 1.473 1.545 2.563 3.143 4.375 4.376 1.439 1.405 3.244 3.336 4.376 5 1.96 1.206 3.385 2.189 5.625 3.75 1.884 1.102 3.915 2.234 6.875 2.5 3.67-.262 4.755-1.297 7.5-2.5 2.329-1.713 4.163-2.838 6.25-4.375 1.629-1.141 3.288-3.403 4.375-5 3.382-.846 5.529-.508 7.5 1.25a16.536 16.536 0 0 1 4.375 4.375c1.02.51 2.73 1.99 3.75 2.5" transform="matrix(.09758 0 0 .09635 53.821 45.42)" stroke-width="2.379" fill="none"/>
      <path d="M503.76 836.11c-.802.334-3.717 2.367-5 3.125-.8 2.631-2.077 4.069-2.5 6.875-.677 2.709-.625 5.692-.625 8.75.685 3.194 2.015 5.557 3.125 8.125 1.974 1.342 2.967 2.33 5.625 3.75 2.494.337 4.94.625 8.126.625 1.904.635 5.615.942 7.5 0 2.783-.376 4.854-1.507 6.875-2.5 2.306-1.307 3.728-2.542 6.25-3.75 1.225-1.801 3.13-3.46 5-5.625 1.556-2.105 2.7-3.286 3.75-5.625-.924 2.669-2.327 4.999-3.125 7.5-1.422 2.661-2.248 3.604-2.5 6.875-.871 2.613-.625 5.76-.625 8.75.274 2.031.418 5.837 1.25 7.5v1.875" transform="matrix(.12132 0 0 .12024 51.936 26.188)" stroke-width="1.91" fill="none"/>
      <path d="M541.26 799.23v.625c0-1.687.041-.83-.625 2.5-1.179 1.462-3.944 1.868-6.25 1.25-2.022-1.67-1.96-2.935-5.625-3.75-3.542.253-4.892 1.279-6.875 2.5-2.354 1.177-3.438 1.771-5 4.375-.776 2.12-1.209 3.555 1.25 4.375 1.954 1.386 4.277 2.149 6.875 2.5 2.887 0 4.968-.339 6.25 1.25 1.983 2.055 1.875 3.277 1.875 6.875.667 1.112.799 4.394 1.25 5.625 1.736.823 2.755 1.25 5.625 1.25.674-1.931 1.423-5.419 1.875-7.5.489-2.248.64-5.379 1.875-6.875a16.58 16.58 0 0 1 4.375-4.375c.766-1.073 2.223-1.965 3.75-2.5-2.452 1.251-2.801 2.603-3.125 5.625 2.155 1.078 2.731 1.833 6.25 1.875 3.459-.291 4.295-1.169 5.625-3.125.242 3.136 1.243 4.186 1.875 6.875 1.286 1.891 1.832 3.828 3.125 6.25-.551 3.012-1.737 3.163-1.875 6.875-.811 2.435-.723 4.783-2.5 6.251-.792.968-1.384 1.158-3.125 1.25 3.618 0 5.727-.391 8.125-1.875 1.854-1.141 3.255-2.563 5.001-3.75 2.212-1.603 4.947-3.085 7.5-3.751 2.887 0 4.968-.339 6.25 1.25 1.77 1.265 2.959 3.447 3.75 6.251.579 3.244.8 5.404-.625 7.5-1.057 2.408-1.297 3.346 0 6.25 1.452 2.033 3.617 2.272 6.875 3.125 2.379-.128 4.668-.671 6.25-1.25" stroke-width="1.25" fill="none" transform="matrix(.19516 0 0 .17447 18.63 -5.958)"/>
      <g stroke-width="1pt" fill-rule="evenodd" transform="matrix(.19516 0 0 .17447 18.63 -5.958)">
        <path d="M531.5 359.64c0-165.27 7.937-299.41 17.717-299.41 9.779 0 17.716 134.13 17.716 299.41H531.5z" transform="matrix(1.4216 -.73423 .46161 .89375 -716.84 541.07)" fill="#fff"/>
        <path d="M531.5 359.64c0-165.27 7.937-299.41 17.717-299.41 9.779 0 17.716 134.13 17.716 299.41" transform="matrix(1.1373 -.58739 .44532 .86221 -554.83 471.77)" fill="#fff"/>
        <path d="M563.39 301.18c.189 18.908 0 40.188 0 60.236h-28.347c0-20.048-.189-41.328 0-60.236h28.347z" transform="matrix(1.4216 -.73423 .45889 .88849 -716.67 541.39)" fill="#fff"/>
        <path d="M559.84 304.72c.189 18.908 0 33.102 0 53.15h-21.26c0-20.048-.189-34.242 0-53.15h21.26z" transform="matrix(1.4216 -.73423 .45889 .88849 -716.67 541.39)" fill="#fff"/>
        <path transform="matrix(1.4216 -.73423 .45889 .88849 -716.67 541.39)" fill="#fff" d="M542.13 311.81h14.173v38.976H542.13zm0 0l14.173 38.976m-14.173.004l14.173-38.976M542.13 113.39h14.173"/>
        <ellipse fill="#ef0000" transform="matrix(1.6046 .45375 -.36215 1.5787 -734.9 -170.85)" cx="545.67" rx="3.543" cy="92.126" ry="3.543"/>
      </g>
      <g fill-rule="evenodd" fill="#fff" transform="matrix(.19516 0 0 .17447 18.63 -5.958)">
        <path d="M305.61 396.85c0 124.02.491 170.76-5.62 177.17-5.79 6.857-167.12 0-167.12 35.433s132.87 70.867 172.74 70.866c53.149 0 79.723-35.433 79.723-106.3v-177.17H305.61z" transform="matrix(1.3333 0 0 1 -141.74 0)" stroke-width="1pt"/>
        <path d="M265.75 396.85v17.717c35.433 5.906 70.866 5.906 106.3 0V396.85c-35.433 5.906-70.866 5.906-106.3 0z" transform="matrix(1 0 0 .99999 0 35.437)" stroke-width="1pt"/>
        <path d="M265.75 396.85v17.717c35.433 5.906 70.866 5.906 106.3 0V396.85c-35.433 5.906-70.866 5.906-106.3 0z" transform="matrix(1 0 0 .99999 0 .004)" stroke-width="1pt"/>
        <path d="M265.75 396.85v17.717c35.433 5.906 70.866 5.906 106.3 0V396.85c-35.433 5.906-70.866 5.906-106.3 0z" transform="matrix(1 0 0 .99999 0 17.721)" stroke-width="1pt"/>
        <path d="M265.75 396.85v17.717c35.433 5.906 70.866 5.906 106.3 0V396.85c-35.433 5.906-70.866 5.906-106.3 0z" transform="matrix(1 0 0 .99999 0 53.154)" stroke-width="1pt"/>
        <ellipse transform="matrix(.54545 0 0 .14383 130.46 394.32)" cx="256.89" rx="8.858" cy="210.83" ry="26.575" stroke-width="4.463"/>
        <ellipse transform="matrix(.54545 0 0 .14383 130.46 391.13)" cx="292.32" rx="8.858" cy="246.26" ry="26.575" stroke-width="4.463"/>
        <ellipse transform="matrix(.54545 0 0 .14383 130.46 390.49)" cx="327.76" rx="8.858" cy="263.98" ry="26.575" stroke-width="4.463"/>
        <ellipse transform="matrix(.54545 0 0 .14383 130.46 390.49)" cx="363.19" rx="8.858" cy="263.98" ry="26.575" stroke-width="4.463"/>
        <ellipse transform="matrix(.54545 0 0 .14383 130.46 391.13)" cx="398.62" rx="8.858" cy="246.26" ry="26.575" stroke-width="4.463"/>
        <ellipse transform="matrix(.54545 0 0 .14383 130.46 394.32)" cx="434.06" rx="8.858" cy="210.83" ry="26.575" stroke-width="4.463"/>
        <path d="M265.75 485.43l106.3 95.669m-95.67-95.669l95.669 85.039M290.55 488.98l81.496 70.866M301.18 488.98l70.866 60.237M311.81 488.98l60.236 49.607M322.44 488.98l49.606 38.977M333.07 488.98l38.976 28.347M343.7 488.98l28.346 21.26m-17.716-21.26l17.716 14.174m-7.086-14.174l7.086 7.087m-106.296-.007l106.3 95.669m0-106.299l-116.93 106.3m106.3-106.3l-102.76 92.126m88.59-88.576l-81.496 70.866m70.866-70.866l-70.866 60.237m60.236-60.237l-60.236 49.607m49.606-49.607l-49.606 38.977m38.976-38.977l-38.976 28.347M294.1 488.98l-28.346 21.26m17.716-21.26l-17.716 14.174m7.086-14.174l-7.086 7.087m106.296-.007l-116.93 106.3m116.93-95.67l-116.93 106.3m116.93-95.67l-116.93 106.3m116.93-95.67l-116.93 106.3m116.93-95.67l-116.93 106.3m116.93-95.67l-116.93 106.3m116.93-95.67l-116.93 106.3m116.93-95.67l-116.93 106.3m116.93-95.67l-109.84 99.21m109.84-88.58l-99.212 88.583M368.5 605.9l-77.953 70.866m74.413-56.686l-63.779 56.693m56.689-38.983l-31.89 28.346M265.75 506.69l102.76 92.126m-102.763-81.489l102.76 92.126m-102.76-81.496l99.213 88.583m-99.213-77.953l99.213 88.583m-99.207-77.957l95.67 85.039m-99.219-77.949l95.669 85.04m-95.669-74.41l88.583 77.953m-92.124-70.873l88.583 77.953m-92.132-70.863l85.04 74.409m-85.041-63.782l81.496 70.865m-81.496-60.235l70.866 63.779" stroke-width="1pt"/>
        <path d="M265.75 396.85v17.717c35.433 5.906 70.866 5.906 106.3 0V396.85c-35.433 5.906-70.866 5.906-106.3 0z" transform="matrix(1 0 0 .99999 0 70.87)" stroke-width="1pt"/>
        <path d="M255.114 612.99l63.78 56.692m-63.78-46.062l56.693 49.606m-56.694-38.976l49.606 42.519m-49.605-31.889l35.434 31.889m-35.434-21.259l28.347 24.804m-28.348-14.174l17.716 14.173" stroke-width="1pt"/>
        <ellipse transform="matrix(.54545 0 0 .14383 130.46 447.47)" cx="256.89" rx="8.858" cy="210.83" ry="26.575" stroke-width="4.463"/>
        <ellipse transform="matrix(.54545 0 0 .14383 130.46 444.28)" cx="292.32" rx="8.858" cy="246.26" ry="26.575" stroke-width="4.463"/>
        <ellipse transform="matrix(.54545 0 0 .14383 130.46 443.64)" cx="327.76" rx="8.858" cy="263.98" ry="26.575" stroke-width="4.463"/>
        <ellipse transform="matrix(.54545 0 0 .14383 130.46 443.64)" cx="363.19" rx="8.858" cy="263.98" ry="26.575" stroke-width="4.463"/>
        <ellipse transform="matrix(.54545 0 0 .14383 130.46 444.28)" cx="398.62" rx="8.858" cy="246.26" ry="26.575" stroke-width="4.463"/>
        <ellipse transform="matrix(.54545 0 0 .14383 130.46 447.47)" cx="434.06" rx="8.858" cy="210.83" ry="26.575" stroke-width="4.463"/>
        <path d="M113.39 651.97l127.55-74.41m-134.637 70.867l120.47-70.87M102.76 641.341l109.84-63.78M99.217 634.254l95.669-56.693M92.127 627.16l88.583-49.606m-85.043 38.983l60.236-35.433m-63.776 28.35l46.063-28.346m-46.066 17.709l31.89-17.717m-.001 74.407l120.47-70.86m-109.836 74.407l113.38-67.32M145.28 662.6l106.3-63.78m-95.67 67.324l88.583-53.15m-74.41 53.142l77.952-46.063m-67.322 49.607l67.323-38.976m-56.7 42.523l53.15-31.89m-38.976 31.896l42.52-24.803m-28.35 28.347l28.347-17.717m-14.164 17.713l17.717-10.63" stroke-width="1pt"/>
        <path d="M265.75 396.85v17.717c35.433 5.906 70.866 5.906 106.3 0V396.85c-35.433 5.906-70.866 5.906-106.3 0z" transform="matrix(0 1 -.99999 0 655.51 308.27)" stroke-width="1pt"/>
        <path d="M49.61 623.624l42.52-35.433M49.61 598.8l42.52 42.52" stroke-width="1pt"/>
        <path d="M260.15 387.99l5.595 26.575c35.433 5.906 65.271 5.906 100.7 0l11.19-26.575c-35.433 5.906-82.056 5.906-117.49 0z" transform="matrix(0 .63333 -.8 0 423.78 416.34)" stroke-width="1pt"/>
        <path d="M258.66 350.79v-17.865c-10.63.149-17.716-10.481-17.717-21.26l-35.432.149c0 10.63-7.087 21.26-17.717 21.26v17.716h70.866z" transform="matrix(1.4983 0 0 1 -15.633 53.149)" stroke-width="1pt"/>
        <path stroke-width="1.379" d="M296.09 343.7h45.506v21.26H296.09zm3.79-21.26h37.922v21.26H299.88zm0-21.26h37.922v21.26H299.88zm3.79-28.35h30.337v28.346H303.67z"/>
        <path stroke-width="1.438" d="M302.36 248.03h32.953v24.803H302.36z"/>
        <ellipse transform="matrix(1.0333 0 0 1 75.354 63.779)" cx="237.4" rx="42.52" cy="161.22" ry="33.661" stroke-width="1pt"/>
        <path d="M258.66 159.45c0 9.291 10.63 24.803 10.63 24.803-7.696 6.093-20.154 10.63-31.889 10.63s-26.349-2.528-31.89-10.63c0 0 10.63-15.512 10.63-24.803s-10.63-21.26-10.63-21.26c7.696-6.093 20.154-10.63 31.89-10.63 11.735 0 24.193 4.537 31.889 10.63 0 0-10.63 11.969-10.63 21.26z" transform="matrix(1.0333 0 0 1 75.354 63.779)" stroke-width="1pt"/>
        <path d="M251.58 159.45c0 9.291 10.63 28.346 10.63 28.346-7.696 6.093-13.068 7.087-24.803 7.087s-19.262 1.015-24.803-7.087c0 0 10.63-19.055 10.63-28.346s-10.63-24.803-10.63-24.803c7.696-6.093 13.067-7.087 24.803-7.087 11.735 0 17.107.994 24.803 7.087 0 0-10.63 15.512-10.63 24.803z" transform="matrix(1.0333 0 0 1 75.354 63.779)" stroke-width="1pt"/>
        <ellipse transform="matrix(1.0333 0 0 1 75.354 60.236)" cx="194.88" rx="10.63" cy="166.54" ry="10.63" stroke-width="1pt"/>
        <ellipse transform="matrix(1.0333 0 0 1 163.23 60.236)" cx="194.88" rx="10.63" cy="166.54" ry="10.63" stroke-width="1pt"/>
        <ellipse transform="matrix(1.0333 0 0 1 119.29 60.236)" cx="194.88" rx="10.63" cy="166.54" ry="10.63" stroke-width="1pt"/>
        <ellipse transform="matrix(1.0333 0 0 1 119.29 24.803)" cx="194.88" rx="10.63" cy="166.54" ry="10.63" stroke-width="1pt"/>
        <ellipse transform="matrix(1.0702 0 0 1 79.931 226.77)" cx="194.88" rx="10.63" cy="166.54" ry="10.63" stroke-width="1pt"/>
        <ellipse transform="matrix(1.0702 0 0 1 140.61 226.77)" cx="194.88" rx="10.63" cy="166.54" ry="10.63" stroke-width="1pt"/>
        <path d="M212.6 311.81h49.607l-24.803 31.89-24.804-31.89z" transform="matrix(1.0702 0 0 1 64.762 53.149)" stroke-width="1pt"/>
        <ellipse transform="matrix(1.427 0 0 1.3333 40.745 167.72)" cx="194.88" rx="10.63" cy="166.54" ry="10.63" stroke-width="1pt"/>
      </g>
      <g fill-rule="evenodd" fill="#fff" transform="matrix(.19516 0 0 .17447 18.285 -10.895)">
        <rect rx="4.423" ry="3.75" height="21.26" width="81.496" y="524.41" x="262.2" stroke-width="1.25"/>
        <path d="M368.51 506.69c-9.814 0-17.716 8.259-17.716 18.519v16.111c0 10.26 7.902 18.52 17.716 18.52 9.815 0 17.717-8.26 17.717-18.52v-16.111c0-10.26-7.902-18.519-17.717-18.519zm0 7.087c-5.888 0-10.63 6.608-10.63 14.816v9.345c0 8.208 4.742 14.816 10.63 14.816 5.889 0 10.63-6.608 10.63-14.816v-9.345c0-8.208-4.741-14.816-10.63-14.816zm-92.13-3.537c-5.888 0-10.63 6.608-10.63 14.816v16.432c0 8.208 4.742 14.816 10.63 14.816 5.889 0 10.63-6.608 10.63-14.816v-16.432c0-8.208-4.741-14.816-10.63-14.816zm0-7.087c-9.814 0-17.716 8.259-17.716 18.519v23.198c0 10.26 7.902 18.52 17.716 18.52 9.815 0 17.717-8.26 17.717-18.52v-23.198c0-10.26-7.902-18.519-17.717-18.519z" stroke-width="1.25"/>
        <path d="M248.03 517.32c-5.888 0-10.63 6.608-10.63 14.816l-.001 3.864c0 8.208 4.742 14.816 10.63 14.816 5.889 0 10.63-6.608 10.63-14.816l.001-3.864c0-8.208-4.741-14.816-10.63-14.816zm0-7.087c-9.814 0-17.716 8.259-17.716 18.519l-.001 10.63c0 10.26 7.902 18.52 17.716 18.52 9.815 0 17.717-8.26 17.717-18.52l.001-10.63c0-10.26-7.902-18.519-17.717-18.519z" stroke-width="1.25"/>
        <path d="M478.35 237.4c-5.888 0-10.63 6.608-10.63 14.816v16.432c0 8.208 4.742 14.816 10.63 14.816 5.889 0 10.63-6.608 10.63-14.816v-16.432c0-8.208-4.741-14.816-10.63-14.816zm0-7.087c-9.814 0-17.716 8.259-17.716 18.519v23.198c0 10.26 7.902 18.52 17.716 18.52 9.815 0 17.717-8.26 17.717-18.52v-23.198c0-10.26-7.902-18.519-17.717-18.519z" transform="matrix(1.8 0 0 1.1176 -655.51 242.2)" stroke-width=".881"/>
        <path d="M478.35 237.4c-5.888 0-10.63 6.608-10.63 14.816v16.432c0 8.208 4.742 14.816 10.63 14.816 5.889 0 10.63-6.608 10.63-14.816v-16.432c0-8.208-4.741-14.816-10.63-14.816zm0-7.087c-9.814 0-17.716 8.259-17.716 18.519v23.198c0 10.26 7.902 18.52 17.716 18.52 9.815 0 17.717-8.26 17.717-18.52v-23.198c0-10.26-7.902-18.519-17.717-18.519z" transform="matrix(1.8 0 0 1.1176 -425.2 245.74)" stroke-width=".881"/>
        <rect rx="2.308" ry="3.75" height="21.26" width="42.52" y="524.41" x="375.59" stroke-width="1.25"/>
        <rect rx="1.346" ry="5" height="28.346" width="24.803" y="520.87" x="336.61" stroke-width="1.25"/>
        <rect rx="1.346" ry="5" height="28.346" width="24.803" y="520.87" x="219.69" stroke-width="1.25"/>
        <rect rx="2.692" ry="6.25" height="35.433" width="49.606" y="517.32" x="141.73" stroke-width="1.25"/>
        <rect rx="2.5" ry="6.25" height="35.433" width="46.063" y="520.87" x="450" stroke-width="1.25"/>
      </g>
    </g>
  </g>
</svg>
